<svg width="24" height="24" viewBox="0 0 24 24" fill="none" xmlns="http://www.w3.org/2000/svg">
<g id="Edit/Add-anchor-point">
<g id="Icon">
<path fill-rule="evenodd" clip-rule="evenodd" d="M19.3508 7.3587C20.7491 8.75698 20.7796 11.0145 19.4195 12.45L19.7095 12.77C19.9409 12.9943 19.9978 13.3439 19.8495 13.63L16.9995 19.3C16.8934 19.5033 16.7032 19.6496 16.4795 19.7L5.98953 21.82H5.83953C5.61468 21.8179 5.40229 21.7164 5.25948 21.5427C5.11667 21.369 5.0581 21.141 5.09953 20.92L7.19953 10.3C7.24314 10.0707 7.391 9.8748 7.59953 9.76999L13.1795 6.93999C13.4687 6.79009 13.822 6.84693 14.0495 7.07999L14.2595 7.28999C15.695 5.92994 17.9525 5.96041 19.3508 7.3587ZM18.1123 8.5572C17.3682 7.81309 16.1948 7.71694 15.3395 8.32999L18.3395 11.33C18.9526 10.4747 18.8564 9.30131 18.1123 8.5572ZM15.8195 18.33L8.13953 19.84L10.8295 17.15C11.0835 17.2539 11.3551 17.3082 11.6295 17.31C12.1946 17.3135 12.7365 17.0859 13.1295 16.68C13.8158 15.9993 13.9576 14.9417 13.475 14.1042C12.9923 13.2667 12.0062 12.8592 11.0731 13.1117C10.14 13.3642 9.49399 14.2134 9.49953 15.18C9.5033 15.51 9.58195 15.8348 9.72953 16.13L7.04953 18.81L8.59953 11L13.3695 8.56999L18.2695 13.47L15.8195 18.33ZM10.9995 15.23C10.9964 15.3952 11.0615 15.5544 11.1795 15.67V15.62C11.2898 15.7589 11.4528 15.8458 11.6295 15.86C11.796 15.8593 11.9549 15.7907 12.0695 15.67C12.1893 15.555 12.257 15.3961 12.257 15.23C12.257 15.0639 12.1893 14.905 12.0695 14.79C11.9564 14.6673 11.7965 14.5982 11.6295 14.6C11.4601 14.6002 11.2979 14.6687 11.1795 14.79C11.0605 14.9049 10.9952 15.0646 10.9995 15.23Z" fill="#0A9EF3"/>
<path d="M5.99953 6.92999C5.99953 7.34421 6.33532 7.67999 6.74953 7.67999C7.16374 7.67999 7.49953 7.34421 7.49953 6.92999V5.67999H8.76953C9.18374 5.67999 9.51953 5.34421 9.51953 4.92999C9.51953 4.51578 9.18374 4.17999 8.76953 4.17999H7.51953V2.92999C7.51953 2.66204 7.37658 2.41445 7.14453 2.28047C6.91248 2.1465 6.62658 2.1465 6.39453 2.28047C6.16248 2.41445 6.01953 2.66204 6.01953 2.92999V4.17999H4.76953C4.35532 4.17999 4.01953 4.51578 4.01953 4.92999C4.01953 5.34421 4.35532 5.67999 4.76953 5.67999H5.99953V6.92999Z" fill="#0A9EF3"/>
</g>
</g>
</svg>
