<svg xmlns="http://www.w3.org/2000/svg" width="56.893" height="59" viewBox="0 0 56.893 59">
  <g id="list" opacity="0">
    <path id="Path_1698" data-name="Path 1698" d="M14.625,5.625H49.394V9.839H14.625Z" transform="translate(7.499 0.696)" fill="#bcbcbc"/>
    <path id="Path_1699" data-name="Path 1699" d="M2.813,10.679A8.429,8.429,0,1,0,11.242,2.25a8.429,8.429,0,0,0-8.429,8.429Zm8.429-4.214a4.214,4.214,0,1,1-4.214,4.214A4.214,4.214,0,0,1,11.242,6.464Z" transform="translate(-2.813 -2.25)" fill="#bcbcbc"/>
    <path id="Path_1700" data-name="Path 1700" d="M14.625,16.875H49.394v4.214H14.625Z" transform="translate(7.499 10.518)" fill="#bcbcbc"/>
    <path id="Path_1701" data-name="Path 1701" d="M11.242,30.357a8.429,8.429,0,1,0-8.429-8.429,8.429,8.429,0,0,0,8.429,8.429Zm0-12.643a4.214,4.214,0,1,1-4.214,4.214,4.214,4.214,0,0,1,4.214-4.214Z" transform="translate(-2.813 7.571)" fill="#bcbcbc"/>
    <path id="Path_1702" data-name="Path 1702" d="M14.625,28.125H49.394v4.214H14.625Z" transform="translate(7.499 20.339)" fill="#bcbcbc"/>
    <path id="Path_1703" data-name="Path 1703" d="M11.242,41.607a8.429,8.429,0,1,0-8.429-8.429,8.429,8.429,0,0,0,8.429,8.429Zm0-12.643a4.214,4.214,0,1,1-4.214,4.214A4.214,4.214,0,0,1,11.242,28.964Z" transform="translate(-2.813 17.393)" fill="#bcbcbc"/>
  </g>
</svg>
