<svg xmlns="http://www.w3.org/2000/svg" width="36.703" height="41.551" viewBox="0 0 36.703 41.551">
  <path id="book" d="M8.15,34.366H39.516V1.125H8.064A5.268,5.268,0,0,0,2.813,6.377V36.984h0c0,.014,0,.026,0,.039a5.536,5.536,0,0,0,5.252,5.652H39.516v-2.77H8.064a2.812,2.812,0,0,1-2.481-2.882,2.649,2.649,0,0,1,2.568-2.658ZM30.514,3.923v14.96L26.324,15.2,22.2,18.862V3.923ZM19.433,3.9v18.7h2.739L26.334,18.9l4.206,3.692h2.744V3.9h3.463V31.6H11.129L11.123,3.9ZM8.065,3.9h.288l.006,27.7H8.15a5.175,5.175,0,0,0-2.566.681V6.4A2.5,2.5,0,0,1,8.064,3.9Z" transform="translate(-2.813 -1.125)" fill="#bebebe"/>
</svg>
