<svg width="64" height="65" viewBox="0 0 64 65" fill="none" xmlns="http://www.w3.org/2000/svg">
<g id="Group 3300" clip-path="url(#clip0_225_5859)">
<g id="Group 3300_2">
<path id="Rectangle 3070" d="M48.3265 0H15.6735C7.01725 0 0 7.05491 0 15.7576V49.2424C0 57.9451 7.01725 65 15.6735 65H48.3265C56.9827 65 64 57.9451 64 49.2424V15.7576C64 7.05491 56.9827 0 48.3265 0Z" fill="#D4900A"/>
<g id="Group 889">
<path id="Subtraction 62" d="M26.8387 54.9466L9.66311 37.6788L35.7539 11.448L42.0342 17.762C42.0259 17.7703 42.0175 17.7787 42.0069 17.7894C41.7037 18.0942 41.4632 18.4561 41.2991 18.8544C41.135 19.2527 41.0505 19.6796 41.0505 20.1107C41.0505 20.5418 41.135 20.9687 41.2991 21.3669C41.4632 21.7652 41.7037 22.1271 42.0069 22.432C42.3101 22.7368 42.6701 22.9786 43.0663 23.1436C43.4624 23.3086 43.887 23.3935 44.3158 23.3935C44.7447 23.3935 45.1693 23.3086 45.5654 23.1436C45.9616 22.9786 46.3216 22.7368 46.6248 22.432C46.634 22.4227 46.6428 22.4139 46.652 22.4046L52.9323 28.7185L26.8415 54.9493L26.8387 54.9466Z" fill="url(#paint0_linear_225_5859)"/>
<path id="Subtraction 61" d="M42.0352 17.7647L35.7549 11.4508L46.4101 11.4164C46.4328 11.4392 49.2921 14.3287 51.1905 16.2373C52.308 17.3608 52.8857 17.937 52.9065 17.9476C52.9772 18.0187 52.9236 28.6029 52.9227 28.7097L46.6535 22.4069C47.2658 21.7912 47.6099 20.9562 47.6099 20.0856C47.6099 19.2149 47.2658 18.3799 46.6535 17.7643C46.0411 17.1486 45.2106 16.8027 44.3446 16.8027C43.4786 16.8027 42.648 17.1486 42.0356 17.7643L42.0352 17.7647Z" fill="url(#paint1_linear_225_5859)"/>
<path id="Path 540" d="M12.4248 34.9023L29.6101 52.1799L26.82 54.9849L9.63471 37.7074L12.4248 34.9023Z" fill="#FFDD00"/>
<path id="Ellipse 352" d="M24.9634 39.5664C28.526 43.1481 34.3021 43.1481 37.8647 39.5664C41.4273 35.9847 41.4273 30.1776 37.8647 26.5959C34.3021 23.0142 28.526 23.0142 24.9634 26.5959C21.4008 30.1776 21.4008 35.9847 24.9634 39.5664Z" fill="url(#paint2_linear_225_5859)"/>
<path id="Polygon 5" d="M36.2205 28.249L33.7814 32.6037L37.236 35.8754L32.4731 35.0927L30.2755 39.5686L29.7735 34.7305L24.9613 34.224L29.4129 32.0169L28.6348 27.2281L31.889 30.7012L36.2205 28.249Z" fill="url(#paint3_linear_225_5859)"/>
</g>
</g>
</g>
<defs>
<linearGradient id="paint0_linear_225_5859" x1="44.3431" y1="20.0833" x2="42.8761" y2="61.9729" gradientUnits="userSpaceOnUse">
<stop stop-color="#B4DD7F"/>
<stop offset="1" stop-color="#5A6F40"/>
</linearGradient>
<linearGradient id="paint1_linear_225_5859" x1="54.0679" y1="7.91715" x2="40.0376" y2="23.1711" gradientUnits="userSpaceOnUse">
<stop stop-color="#B4DD7F"/>
<stop offset="1" stop-color="#5A6F40"/>
</linearGradient>
<linearGradient id="paint2_linear_225_5859" x1="33.1041" y1="16.2583" x2="32.9998" y2="61.1105" gradientUnits="userSpaceOnUse">
<stop stop-color="#FF826E"/>
<stop offset="1" stop-color="#D51D00"/>
</linearGradient>
<linearGradient id="paint3_linear_225_5859" x1="35.0251" y1="24.297" x2="32.4704" y2="43.9244" gradientUnits="userSpaceOnUse">
<stop stop-color="#FCD770"/>
<stop offset="1" stop-color="#DCA400"/>
</linearGradient>
<clipPath id="clip0_225_5859">
<rect width="64" height="65" fill="white"/>
</clipPath>
</defs>
</svg>
