<svg width="64" height="65" viewBox="0 0 64 65" fill="none" xmlns="http://www.w3.org/2000/svg">
<g id="Group 3287">
<g id="Clip path group">
<mask id="mask0_166_4328" style="mask-type:luminance" maskUnits="userSpaceOnUse" x="0" y="0" width="64" height="65">
<g id="clip-path">
<path id="Rectangle 10206" d="M48.3265 0H15.6735C7.01725 0 0 7.05491 0 15.7576V49.2424C0 57.9451 7.01725 65 15.6735 65H48.3265C56.9827 65 64 57.9451 64 49.2424V15.7576C64 7.05491 56.9827 0 48.3265 0Z" fill="white"/>
</g>
</mask>
<g mask="url(#mask0_166_4328)">
<g id="Mask Group 13">
<path id="Path 2353" d="M15.6735 0H48.3265C52.4834 0 56.47 1.66017 59.4093 4.61529C62.3487 7.57041 64 11.5784 64 15.7576V49.2424C64 53.4216 62.3487 57.4296 59.4093 60.3847C56.47 63.3398 52.4834 65 48.3265 65H15.6735C11.5166 65 7.53 63.3398 4.59065 60.3847C1.65131 57.4296 0 53.4216 0 49.2424L0 15.7576C0 11.5784 1.65131 7.57041 4.59065 4.61529C7.53 1.66017 11.5166 0 15.6735 0Z" fill="url(#paint0_linear_166_4328)"/>
<g id="Employee">
<path id="Path 634" d="M25.6551 70.9523L20.2482 54.6885L43.8438 54.8566L38.5205 71.1624C36.3591 71.4394 34.1815 71.5729 32.0026 71.5622C29.8752 71.5073 27.7543 71.3035 25.6551 70.9523Z" fill="#C7FFFA"/>
<path id="Path 629" d="M26.2405 48.5303C26.2405 48.5303 26.1817 51.1769 26.1066 51.6752C25.8085 52.4472 25.2912 53.1141 24.6194 53.5932C24.1041 53.8807 22.6538 54.7441 22.6538 54.7441L31.1232 62.3601H33.5441L41.634 54.2483C40.7886 54.1272 39.9877 53.7906 39.3081 53.2707C38.6993 52.6556 38.2525 51.8976 38.0084 51.0653V48.5343L26.2405 48.5303Z" fill="url(#paint1_linear_166_4328)"/>
<path id="Path 639" d="M16.9352 24.7764C18.2451 24.7868 19.4973 25.3198 20.4164 26.2583C21.3356 27.1967 21.8463 28.4637 21.8364 29.7807C21.8463 31.0977 21.3356 32.3647 20.4164 33.3032C19.4973 34.2416 18.2451 34.7746 16.9352 34.7851C15.6252 34.7746 14.373 34.2416 13.4539 33.3032C12.5348 32.3647 12.024 31.0977 12.034 29.7807C12.024 28.4637 12.5348 27.1967 13.4539 26.2583C14.373 25.3198 15.6252 24.7868 16.9352 24.7764Z" fill="#FC9F81"/>
<path id="Path 640" d="M47.2625 24.7764C48.5724 24.7868 49.8246 25.3198 50.7437 26.2583C51.6628 27.1967 52.1736 28.4637 52.1637 29.7807C52.1736 31.0977 51.6628 32.3647 50.7437 33.3032C49.8246 34.2416 48.5724 34.7746 47.2625 34.7851C45.9525 34.7746 44.7003 34.2416 43.7812 33.3032C42.8621 32.3647 42.3513 31.0977 42.3612 29.7807C42.3513 28.4637 42.8621 27.1967 43.7812 26.2583C44.7003 25.3198 45.9525 24.7868 47.2625 24.7764Z" fill="#FC9F81"/>
<path id="Path 628" d="M17.2696 19.1025C17.2285 19.3973 17.2696 35.476 17.2696 35.476C17.2696 35.476 16.8504 40.2795 20.8321 45.0822C24.8138 49.885 32.0215 51.3196 32.0215 51.3196C32.0215 51.3196 39.524 49.9717 43.4201 45.0822C47.3163 40.1928 47.026 35.476 47.026 35.476V19.1025H17.2696Z" fill="url(#paint2_linear_166_4328)"/>
<path id="Path 627" d="M12.787 5.25293V19.3842C12.9981 20.4159 13.3388 21.4165 13.801 22.3618C14.3029 23.2841 14.9197 24.1386 15.6358 24.9047V32.8327C15.8558 33.5345 16.2482 34.1693 16.7768 34.6783C17.354 35.0868 18.0317 35.3282 18.736 35.3762V26.7003C18.736 26.7003 27.1913 28.3582 31.9541 26.9493C33.3364 26.5351 34.5939 25.7797 35.6116 24.7521C36.6293 23.7245 37.3753 22.4571 37.7812 21.0656C37.7812 21.0656 38.695 24.2573 40.6333 25.8028C42.5716 27.3484 45.5421 27.2472 45.5421 27.2472V35.3998C46.1729 35.346 46.7799 35.1316 47.3055 34.7767C47.8023 34.3398 48.1923 33.7937 48.4452 33.1807V26.3748C49.2778 25.8447 50.0023 25.1602 50.5804 24.3578C51.1492 23.4462 51.5734 22.4511 51.838 21.4084V15.0883C51.838 15.0883 51.2099 11.0289 48.8399 8.60613C46.47 6.1834 42.3597 5.39735 42.3597 5.39735H39.3068C39.0189 5.43508 38.7406 5.52647 38.486 5.66665C38.291 5.8141 38.1177 5.98838 37.9713 6.18456C37.8195 5.92886 37.6101 5.71242 37.3603 5.55236C37.0689 5.39989 36.7524 5.30243 36.426 5.26479L12.787 5.25293Z" fill="url(#paint3_linear_166_4328)"/>
<path id="Path 632" d="M29.979 60.4395H36.1595L34.4822 67.248H29.655L28.2838 60.4395H29.979Z" fill="#4A78FF"/>
<path id="Path 630" d="M32.1436 60.5571C32.3258 60.5827 36.2941 66.2417 36.2941 66.2417L43.8043 54.8232L40.3814 53.0039L32.1436 60.5571Z" fill="white"/>
<path id="Path 631" d="M20.2482 54.7973L27.9114 66.2407L32.0785 60.556L23.8196 53.0771L20.2482 54.7973Z" fill="white"/>
<path id="Path 636" d="M38.5007 71.052C38.5007 71.052 40.2192 70.7777 41.6755 70.4041C42.5752 70.1713 43.4609 69.8881 44.3292 69.5558L43.8815 67.1875L47.8751 65.9906V56.2669L43.8815 54.8711L38.5007 71.052Z" fill="#11234A"/>
<path id="Path 637" d="M4.86804 60.4396L17.053 56.0557L21.5032 69.9269C18.5365 69.296 15.679 68.2258 13.0249 66.7511C10.0832 64.9556 7.34755 62.8389 4.86804 60.4396Z" fill="#26478F"/>
<path id="Path 638" d="M47.5039 56.1426L59.1346 60.6073C56.8015 62.7342 54.2886 64.6529 51.6244 66.3416C49.2429 67.751 46.704 68.8724 44.0606 69.6823L42.9197 64.2985L47.5039 56.1426Z" fill="#26478F"/>
<path id="Path 635" d="M16.3572 56.3179L20.2756 54.7217L25.6563 71.0518C25.6563 71.0518 24.0237 70.7236 22.5811 70.3539C21.1384 69.9843 19.8783 69.5811 19.8783 69.5811L20.2749 67.1131L16.3566 65.9168L16.3572 56.3179Z" fill="#11234A"/>
</g>
</g>
</g>
</g>
</g>
<defs>
<linearGradient id="paint0_linear_166_4328" x1="32" y1="1.017e-06" x2="66.4157" y2="63.1253" gradientUnits="userSpaceOnUse">
<stop stop-color="#D99F00"/>
<stop offset="1" stop-color="#DE8928"/>
</linearGradient>
<linearGradient id="paint1_linear_166_4328" x1="32.1439" y1="48.5303" x2="32.1439" y2="66.1219" gradientUnits="userSpaceOnUse">
<stop stop-color="#FE6D41"/>
<stop offset="0.54" stop-color="#FB9F83"/>
<stop offset="1" stop-color="#FF7A51"/>
</linearGradient>
<linearGradient id="paint2_linear_166_4328" x1="32.1411" y1="19.1025" x2="60.7341" y2="48.4356" gradientUnits="userSpaceOnUse">
<stop stop-color="#FFCCBD"/>
<stop offset="1" stop-color="#FF6137"/>
</linearGradient>
<linearGradient id="paint3_linear_166_4328" x1="12.787" y1="-1.2588" x2="31.8413" y2="27.6036" gradientUnits="userSpaceOnUse">
<stop stop-color="#3F4751"/>
<stop offset="1" stop-color="#0D0E10"/>
</linearGradient>
</defs>
</svg>
