<svg width="41" height="41" viewBox="0 0 41 41" fill="none" xmlns="http://www.w3.org/2000/svg">
<g id="Group 3320">
<g id="Clip path group">
<mask id="mask0_208_321" style="mask-type:luminance" maskUnits="userSpaceOnUse" x="0" y="0" width="41" height="41">
<g id="clip-path">
<path id="Rectangle 2939" d="M30.4829 0H9.88634C4.42627 0 0 4.45002 0 9.93939V31.0606C0 36.55 4.42627 41 9.88634 41H30.4829C35.943 41 40.3692 36.55 40.3692 31.0606V9.93939C40.3692 4.45002 35.943 0 30.4829 0Z" fill="white"/>
</g>
</mask>
<g mask="url(#mask0_208_321)">
<g id="Mask Group 8">
<g id="Account Ledger">
<g id="Group 1032">
<path id="Path 676" d="M-11.4102 1.89429H40.3535V40.8194H-11.4102V1.89429Z" fill="url(#paint0_linear_208_321)"/>
<g id="Path 677">
<path id="Vector" d="M37.6225 38.0738H-8.67908V-0.648926H37.6225V38.0738Z" fill="url(#paint1_linear_208_321)"/>
<path id="Vector_2" d="M-8.47308 -0.441816V37.8667H37.4166V-0.441816H-8.47308ZM-8.88501 -0.855957H37.8285V38.2809H-8.88501V-0.855957Z" fill="#CFCFCF"/>
</g>
</g>
<g id="Group 1031">
<path id="Path 692" d="M26.9022 2.28687H35.4242V3.66181H26.9022V2.28687Z" fill="#D3D3D3"/>
<path id="Path 693" d="M26.9022 6.51782H35.4242V7.89277H26.9022V6.51782Z" fill="#D3D3D3"/>
<path id="Path 694" d="M26.9022 10.749H35.4242V12.124H26.9022V10.749Z" fill="#D3D3D3"/>
<path id="Path 695" d="M26.9022 14.9797H35.4242V16.3547H26.9022V14.9797Z" fill="#D3D3D3"/>
<path id="Path 696" d="M20.2739 14.9797H25.7448V16.3547H20.2739V14.9797Z" fill="#D3D3D3"/>
<path id="Path 674" d="M21.8521 14.9797H39.5276C39.6383 14.9795 39.748 15.0012 39.8503 15.0435C39.9526 15.0859 40.0457 15.1482 40.124 15.2268C40.2024 15.3054 40.2646 15.3988 40.307 15.5016C40.3494 15.6044 40.3713 15.7145 40.3713 15.8258V40.1542C40.3713 40.3786 40.2826 40.5938 40.1248 40.7524C39.9669 40.9111 39.7529 41.0002 39.5297 41.0002H21.8521C21.6289 41.0002 21.4148 40.9111 21.257 40.7524C21.0992 40.5938 21.0105 40.3786 21.0105 40.1542V15.8258C21.0105 15.6014 21.0992 15.3862 21.257 15.2276C21.4148 15.0689 21.6289 14.9797 21.8521 14.9797Z" fill="url(#paint2_linear_208_321)"/>
<path id="Path 688" d="M22.7991 16.5664H38.5806V19.9512H22.7991V16.5664Z" fill="#80D6FB"/>
<path id="Path 689" d="M21.0105 21.3267H40.3713V21.8555H21.0105V21.3267Z" fill="#466089"/>
<path id="Path 678" d="M23.3251 23.2305H29.6371C29.7766 23.2305 29.9104 23.2862 30.0091 23.3854C30.1077 23.4845 30.1632 23.6191 30.1632 23.7593V30.1052C30.1633 30.1747 30.1497 30.2436 30.1234 30.3079C30.097 30.3721 30.0582 30.4305 30.0094 30.4797C29.9605 30.5289 29.9025 30.5679 29.8386 30.5946C29.7747 30.6212 29.7063 30.6349 29.6371 30.6349H23.3251C23.256 30.6349 23.1875 30.6212 23.1236 30.5946C23.0597 30.5679 23.0017 30.5289 22.9529 30.4797C22.904 30.4305 22.8653 30.3721 22.8389 30.3079C22.8125 30.2436 22.799 30.1747 22.7991 30.1052V23.7593C22.7991 23.6191 22.8545 23.4845 22.9531 23.3854C23.0518 23.2862 23.1856 23.2305 23.3251 23.2305Z" fill="white"/>
<path id="Path 679" d="M31.7421 23.2305H38.0541C38.1936 23.2305 38.3274 23.2862 38.4261 23.3854C38.5247 23.4845 38.5802 23.6191 38.5802 23.7593V30.1052C38.5803 30.1747 38.5667 30.2436 38.5403 30.3079C38.514 30.3721 38.4752 30.4305 38.4264 30.4797C38.3775 30.5289 38.3195 30.5679 38.2556 30.5946C38.1917 30.6212 38.1233 30.6349 38.0541 30.6349H31.7421C31.673 30.6349 31.6045 30.6212 31.5406 30.5946C31.4767 30.5679 31.4187 30.5289 31.3698 30.4797C31.321 30.4305 31.2823 30.3721 31.2559 30.3079C31.2295 30.2436 31.216 30.1747 31.2161 30.1052V23.7593C31.2161 23.6191 31.2715 23.4845 31.3701 23.3854C31.4688 23.2862 31.6026 23.2305 31.7421 23.2305Z" fill="white"/>
<path id="Path 675" d="M31.7421 31.6926H38.0541C38.1936 31.6926 38.3274 31.7483 38.4261 31.8475C38.5247 31.9467 38.5802 32.0812 38.5802 32.2215V38.5674C38.5803 38.6369 38.5667 38.7058 38.5403 38.77C38.514 38.8343 38.4752 38.8927 38.4264 38.9419C38.3775 38.9911 38.3195 39.0301 38.2556 39.0567C38.1917 39.0834 38.1233 39.0971 38.0541 39.0971H31.7421C31.673 39.0971 31.6045 39.0834 31.5406 39.0567C31.4767 39.0301 31.4187 38.9911 31.3698 38.9419C31.321 38.8927 31.2823 38.8343 31.2559 38.77C31.2295 38.7058 31.216 38.6369 31.2161 38.5674V32.2215C31.2161 32.0812 31.2715 31.9467 31.3701 31.8475C31.4688 31.7483 31.6026 31.6926 31.7421 31.6926Z" fill="white"/>
<path id="Path 680" d="M23.3251 31.6926H29.6371C29.7766 31.6926 29.9104 31.7483 30.0091 31.8475C30.1077 31.9467 30.1632 32.0812 30.1632 32.2215V38.5674C30.1633 38.6369 30.1497 38.7058 30.1234 38.77C30.097 38.8343 30.0582 38.8927 30.0094 38.9419C29.9605 38.9911 29.9025 39.0301 29.8386 39.0567C29.7747 39.0834 29.7063 39.0971 29.6371 39.0971H23.3251C23.256 39.0971 23.1875 39.0834 23.1236 39.0567C23.0597 39.0301 23.0017 38.9911 22.9529 38.9419C22.904 38.8927 22.8653 38.8343 22.8389 38.77C22.8125 38.7058 22.799 38.6369 22.7991 38.5674V32.2215C22.7991 32.0812 22.8545 31.9467 22.9531 31.8475C23.0518 31.7483 23.1856 31.6926 23.3251 31.6926Z" fill="white"/>
<path id="Path 681" d="M25.9552 29.3655V27.569H24.1666V26.5096H25.9552V24.7114H27.0089V26.5096H28.7976V27.569H27.0089V29.3672L25.9552 29.3655Z" fill="#6E83B7"/>
<path id="Path 682" d="M24.4725 36.7839L25.7361 35.5136L24.4714 34.242L25.2165 33.493L26.4812 34.7645L27.7459 33.493L28.491 34.242L27.2263 35.5136L28.491 36.7851L27.7459 37.5342L26.4812 36.2627L25.2165 37.5342L24.4725 36.7839Z" fill="#6E83B7"/>
<path id="Path 683" d="M32.5836 26.5095H37.2129V27.5672H32.5836V26.5095Z" fill="#6E83B7"/>
<path id="Path 684" d="M32.5836 34.9714H37.2129V36.0292H32.5836V34.9714Z" fill="#6E83B7"/>
<path id="Path 685" d="M34.8978 33.0674C35.0226 33.0674 35.1446 33.1046 35.2484 33.1743C35.3522 33.244 35.4331 33.3431 35.4808 33.459C35.5286 33.575 35.5411 33.7026 35.5168 33.8256C35.4924 33.9487 35.4323 34.0618 35.344 34.1505C35.2558 34.2392 35.1433 34.2996 35.0209 34.3241C34.8985 34.3486 34.7716 34.336 34.6563 34.288C34.541 34.24 34.4424 34.1587 34.3731 34.0543C34.3037 33.95 34.2667 33.8273 34.2667 33.7018C34.2667 33.5336 34.3332 33.3722 34.4516 33.2532C34.5699 33.1342 34.7304 33.0674 34.8978 33.0674Z" fill="#6E83B7"/>
<path id="Path 686" d="M34.8978 36.6638C35.0226 36.6638 35.1446 36.701 35.2484 36.7707C35.3522 36.8405 35.4331 36.9396 35.4808 37.0555C35.5286 37.1714 35.5411 37.299 35.5168 37.4221C35.4924 37.5451 35.4323 37.6582 35.344 37.7469C35.2558 37.8356 35.1433 37.8961 35.0209 37.9206C34.8985 37.945 34.7716 37.9325 34.6563 37.8845C34.541 37.8364 34.4424 37.7551 34.3731 37.6508C34.3037 37.5464 34.2667 37.4238 34.2667 37.2983C34.2667 37.13 34.3332 36.9686 34.4516 36.8496C34.5699 36.7307 34.7304 36.6638 34.8978 36.6638Z" fill="#6E83B7"/>
</g>
<g id="Group 1030">
<path id="Path 698" d="M15.2015 -0.855957H16.5832V38.2224H15.2015V-0.855957Z" fill="#D3D3D3"/>
<path id="Path 687" d="M15.9359 2.28638C16.494 2.28638 17.0292 2.50925 17.4238 2.90597C17.8184 3.30269 18.0401 3.84076 18.0401 4.40181V30.8456H13.8318V4.40181C13.8318 3.84076 14.0535 3.30269 14.4481 2.90597C14.8427 2.50925 15.3779 2.28638 15.9359 2.28638Z" fill="url(#paint3_linear_208_321)"/>
<path id="Path 673" d="M13.8875 30.8462L15.8296 34.94L17.9758 30.8462H13.8875Z" fill="url(#paint4_linear_208_321)"/>
<path id="Path 697" d="M13.8318 6.51782H18.0401V7.47035H13.8318V6.51782Z" fill="url(#paint5_linear_208_321)"/>
<path id="Path 690" d="M16.8831 7.57544H18.9872V19.2107H16.8831V7.57544Z" fill="url(#paint6_linear_208_321)"/>
</g>
<g id="Group 1029">
<path id="Path 691" d="M-6.34412 2.28687H11.4365V3.87344H-6.34412V2.28687Z" fill="#D3D3D3"/>
<path id="Path 667" d="M-6.34412 6.51782H11.4365V8.1044H-6.34412V6.51782Z" fill="#D3D3D3"/>
<path id="Path 670" d="M-6.34412 25.4514H11.4365V27.038H-6.34412V25.4514Z" fill="#D3D3D3"/>
<path id="Path 671" d="M-6.34412 29.4709H11.4365V31.0575H-6.34412V29.4709Z" fill="#D3D3D3"/>
<path id="Path 672" d="M-6.34412 33.7019H11.4365V35.2885H-6.34412V33.7019Z" fill="#D3D3D3"/>
<path id="Path 668" d="M-6.34412 9.37354H1.8945V22.2699H-6.34412V9.37354Z" fill="#D3D3D3"/>
<path id="Path 669" d="M3.19788 9.37354H11.4365V22.2699H3.19788V9.37354Z" fill="#D3D3D3"/>
</g>
</g>
</g>
</g>
</g>
</g>
<defs>
<linearGradient id="paint0_linear_208_321" x1="19.5445" y1="-23.0957" x2="-0.95543" y2="57.3436" gradientUnits="userSpaceOnUse">
<stop stop-color="#80D6FB"/>
<stop offset="1" stop-color="#005C85"/>
</linearGradient>
<linearGradient id="paint1_linear_208_321" x1="14.4717" y1="-0.648926" x2="28.2767" y2="39.8092" gradientUnits="userSpaceOnUse">
<stop stop-color="#EDEFF1"/>
<stop offset="1" stop-color="#F9F9F9"/>
</linearGradient>
<linearGradient id="paint2_linear_208_321" x1="30.6909" y1="14.9797" x2="55.6131" y2="37.4045" gradientUnits="userSpaceOnUse">
<stop stop-color="#6E83B7"/>
<stop offset="1" stop-color="#37425C"/>
</linearGradient>
<linearGradient id="paint3_linear_208_321" x1="13.8318" y1="2.28638" x2="46.8904" y2="3.16962" gradientUnits="userSpaceOnUse">
<stop stop-color="#6E83B7"/>
<stop offset="1" stop-color="#37425C"/>
</linearGradient>
<linearGradient id="paint4_linear_208_321" x1="15.9316" y1="30.8462" x2="15.9316" y2="34.94" gradientUnits="userSpaceOnUse">
<stop stop-color="#123B7B"/>
<stop offset="1" stop-color="#001941"/>
</linearGradient>
<linearGradient id="paint5_linear_208_321" x1="13.8318" y1="5.65102" x2="14.1477" y2="7.61892" gradientUnits="userSpaceOnUse">
<stop stop-color="#466089"/>
<stop offset="1" stop-color="#233045"/>
</linearGradient>
<linearGradient id="paint6_linear_208_321" x1="17.9351" y1="7.57544" x2="20.9693" y2="7.57544" gradientUnits="userSpaceOnUse">
<stop stop-color="#D3D3D3"/>
<stop offset="1" stop-color="#6A6A6A"/>
</linearGradient>
</defs>
</svg>
