<svg width="24" height="24" viewBox="0 0 24 24" fill="none" xmlns="http://www.w3.org/2000/svg">
<g id="Edit/Add-anchor-point">
<g id="Icon">
<path fill-rule="evenodd" clip-rule="evenodd" d="M19.3508 7.35888C20.7491 8.75717 20.7796 11.0147 19.4195 12.4502L19.7095 12.7702C19.9409 12.9945 19.9978 13.344 19.8495 13.6302L16.9995 19.3002C16.8934 19.5035 16.7032 19.6498 16.4795 19.7002L5.98953 21.8202H5.83953C5.61468 21.8181 5.40229 21.7166 5.25948 21.5429C5.11667 21.3692 5.0581 21.1412 5.09953 20.9202L7.19953 10.3002C7.24314 10.0709 7.391 9.87498 7.59953 9.77018L13.1795 6.94018C13.4687 6.79027 13.822 6.84711 14.0495 7.08018L14.2595 7.29018C15.695 5.93013 17.9525 5.96059 19.3508 7.35888ZM18.1123 8.55738C17.3682 7.81327 16.1948 7.71713 15.3395 8.33018L18.3395 11.3302C18.9526 10.4749 18.8564 9.30149 18.1123 8.55738ZM15.8195 18.3302L8.13953 19.8402L10.8295 17.1502C11.0835 17.2541 11.3551 17.3084 11.6295 17.3102C12.1946 17.3137 12.7365 17.0861 13.1295 16.6802C13.8158 15.9994 13.9576 14.9419 13.475 14.1044C12.9923 13.2669 12.0062 12.8594 11.0731 13.1119C10.14 13.3644 9.49399 14.2136 9.49953 15.1802C9.5033 15.5102 9.58195 15.835 9.72953 16.1302L7.04953 18.8102L8.59953 11.0002L13.3695 8.57018L18.2695 13.4702L15.8195 18.3302ZM10.9995 15.2302C10.9964 15.3954 11.0615 15.5545 11.1795 15.6702V15.6202C11.2898 15.7591 11.4528 15.846 11.6295 15.8602C11.796 15.8595 11.9549 15.7909 12.0695 15.6702C12.1893 15.5551 12.257 15.3963 12.257 15.2302C12.257 15.0641 12.1893 14.9052 12.0695 14.7902C11.9564 14.6674 11.7965 14.5984 11.6295 14.6002C11.4601 14.6004 11.2979 14.6689 11.1795 14.7902C11.0605 14.9051 10.9952 15.0648 10.9995 15.2302Z" fill="#0A9EF3"/>
<path d="M5.99953 6.93018C5.99953 7.34439 6.33532 7.68018 6.74953 7.68018C7.16374 7.68018 7.49953 7.34439 7.49953 6.93018V5.68018H8.76953C9.18374 5.68018 9.51953 5.34439 9.51953 4.93018C9.51953 4.51596 9.18374 4.18018 8.76953 4.18018H7.51953V2.93018C7.51953 2.66223 7.37658 2.41463 7.14453 2.28066C6.91248 2.14668 6.62658 2.14668 6.39453 2.28066C6.16248 2.41463 6.01953 2.66223 6.01953 2.93018V4.18018H4.76953C4.35532 4.18018 4.01953 4.51596 4.01953 4.93018C4.01953 5.34439 4.35532 5.68018 4.76953 5.68018H5.99953V6.93018Z" fill="#0A9EF3"/>
</g>
</g>
</svg>
