<svg xmlns="http://www.w3.org/2000/svg" width="53" height="53" viewBox="0 0 53 53">
  <g id="Group_3220" data-name="Group 3220" transform="translate(22052 17138)">
    <path id="Union_40" data-name="Union 40" d="M8.833,53A8.844,8.844,0,0,1,0,44.167V8.833A8.844,8.844,0,0,1,8.833,0H44.167A8.844,8.844,0,0,1,53,8.833V44.167A8.844,8.844,0,0,1,44.167,53ZM6.5,9V44A2.5,2.5,0,0,0,9,46.5H44A2.5,2.5,0,0,0,46.5,44V9A2.5,2.5,0,0,0,44,6.5H9A2.5,2.5,0,0,0,6.5,9Zm8.639,30.686a2.944,2.944,0,0,1-1.277-5.008L34.68,13.858a2.945,2.945,0,1,1,4.163,4.167L18.022,38.842a2.942,2.942,0,0,1-2.883.844Z" transform="translate(-22052 -17138)" fill="#fff"/>
  </g>
</svg>
