<svg width="65" height="66" viewBox="0 0 65 66" fill="none" xmlns="http://www.w3.org/2000/svg">
<g id="Group 3321" clip-path="url(#clip0_166_1968)">
<g id="Group 3321_2">
<g id="Clip path group">
<mask id="mask0_166_1968" style="mask-type:luminance" maskUnits="userSpaceOnUse" x="0" y="0" width="65" height="66">
<g id="clip-path">
<path id="Rectangle 2783" d="M49.0816 0H15.9184C7.1269 0 0 7.16344 0 16V50C0 58.8366 7.1269 66 15.9184 66H49.0816C57.8731 66 65 58.8366 65 50V16C65 7.16344 57.8731 0 49.0816 0Z" fill="white"/>
</g>
</mask>
<g mask="url(#mask0_166_1968)">
<g id="Mask Group 9">
<g id="Journal">
<path id="Path 521" d="M5.64624 -6.78223H59.2673C60.8999 -6.78223 62.4656 -6.13035 63.62 -4.97C64.7745 -3.80965 65.423 -2.23588 65.423 -0.594893V65.1878C65.423 66.8288 64.7745 68.4025 63.62 69.5629C62.4656 70.7232 60.8999 71.3751 59.2673 71.3751H5.64624V-6.78223Z" fill="url(#paint0_linear_166_1968)"/>
<path id="Path 520" d="M1.77026 0.707031H8.8924C9.15036 0.706944 9.40581 0.757938 9.64417 0.857102C9.88252 0.956265 10.0991 1.10166 10.2815 1.28497C10.464 1.46828 10.6087 1.68592 10.7074 1.92546C10.8062 2.165 10.857 2.42175 10.857 2.68103V61.9104C10.8571 62.1697 10.8063 62.4265 10.7076 62.6661C10.6089 62.9058 10.4642 63.1235 10.2818 63.3069C10.0993 63.4902 9.88271 63.6357 9.64432 63.7349C9.40592 63.8341 9.15042 63.8851 8.8924 63.885H1.77026C1.51224 63.8851 1.25673 63.8341 1.01834 63.7349C0.779941 63.6357 0.563332 63.4902 0.380885 63.3069C0.198439 63.1235 0.0537314 62.9058 -0.0449677 62.6661C-0.143667 62.4265 -0.194423 62.1697 -0.194336 61.9104V2.68103C-0.194336 2.42175 -0.143515 2.165 -0.0447772 1.92546C0.0539609 1.68592 0.198682 1.46828 0.38112 1.28497C0.563558 1.10166 0.780138 0.956265 1.01849 0.857102C1.25684 0.757938 1.51229 0.706944 1.77026 0.707031Z" fill="url(#paint1_linear_166_1968)"/>
<path id="Path 514" d="M15.9077 -6.78255V24.2241C15.9077 24.2241 15.7716 24.5941 16.273 24.7908C16.4885 24.9019 16.7278 24.9599 16.97 24.9599C17.2122 24.9599 17.4501 24.9019 17.6656 24.7908C18.0596 24.5374 20.7202 22.2035 21.1374 22.0348C21.312 21.9312 21.5111 21.8765 21.7139 21.8765C21.9166 21.8765 22.1158 21.9312 22.2904 22.0348C22.6711 22.2882 25.8722 24.7908 25.8722 24.7908C26.0079 24.8771 26.1611 24.9321 26.3205 24.9516C26.4798 24.9711 26.6411 24.9546 26.7933 24.9035C26.9811 24.8504 27.1479 24.7413 27.2726 24.5906C27.3973 24.4399 27.4738 24.2547 27.4915 24.0595C27.5486 23.6382 27.5188 -6.7832 27.5188 -6.7832L15.9077 -6.78255Z" fill="url(#paint2_linear_166_1968)"/>
<path id="Path 525" d="M-2.34338 8.35742H3.18095C3.46307 8.35742 3.74243 8.41327 4.00308 8.52179C4.26372 8.63031 4.50055 8.78936 4.70004 8.98988C4.89953 9.19039 5.05778 9.42843 5.16574 9.69041C5.2737 9.9524 5.32927 10.2332 5.32927 10.5168C5.32927 10.8003 5.2737 11.0811 5.16574 11.3431C5.05778 11.6051 4.89953 11.8431 4.70004 12.0436C4.50055 12.2441 4.26372 12.4032 4.00308 12.5117C3.74243 12.6202 3.46307 12.6761 3.18095 12.6761H-2.34338C-2.6255 12.6761 -2.90486 12.6202 -3.16551 12.5117C-3.42615 12.4032 -3.66298 12.2441 -3.86247 12.0436C-4.06196 11.8431 -4.22021 11.6051 -4.32817 11.3431C-4.43613 11.0811 -4.4917 10.8003 -4.4917 10.5168C-4.4917 10.2332 -4.43613 9.9524 -4.32817 9.69041C-4.22021 9.42843 -4.06196 9.19039 -3.86247 8.98988C-3.66298 8.78936 -3.42615 8.63031 -3.16551 8.52179C-2.90486 8.41327 -2.6255 8.35742 -2.34338 8.35742Z" fill="url(#paint3_linear_166_1968)"/>
<path id="Path 524" d="M-2.34338 22.4238H3.18095C3.46307 22.4238 3.74243 22.4797 4.00308 22.5882C4.26372 22.6967 4.50055 22.8558 4.70004 23.0563C4.89953 23.2568 5.05778 23.4948 5.16574 23.7568C5.2737 24.0188 5.32927 24.2996 5.32927 24.5832C5.32927 24.8667 5.2737 25.1475 5.16574 25.4095C5.05778 25.6715 4.89953 25.9095 4.70004 26.11C4.50055 26.3106 4.26372 26.4696 4.00308 26.5781C3.74243 26.6866 3.46307 26.7425 3.18095 26.7425H-2.34338C-2.6255 26.7425 -2.90486 26.6866 -3.16551 26.5781C-3.42615 26.4696 -3.66298 26.3106 -3.86247 26.11C-4.06196 25.9095 -4.22021 25.6715 -4.32817 25.4095C-4.43613 25.1475 -4.4917 24.8667 -4.4917 24.5832C-4.4917 24.2996 -4.43613 24.0188 -4.32817 23.7568C-4.22021 23.4948 -4.06196 23.2568 -3.86247 23.0563C-3.66298 22.8558 -3.42615 22.6967 -3.16551 22.5882C-2.90486 22.4797 -2.6255 22.4238 -2.34338 22.4238Z" fill="url(#paint4_linear_166_1968)"/>
<path id="Path 523" d="M-2.34338 37.8486H3.18095C3.46307 37.8486 3.74243 37.9045 4.00308 38.013C4.26372 38.1215 4.50055 38.2806 4.70004 38.4811C4.89953 38.6816 5.05778 38.9196 5.16574 39.1816C5.2737 39.4436 5.32927 39.7244 5.32927 40.008C5.32927 40.2915 5.2737 40.5723 5.16574 40.8343C5.05778 41.0963 4.89953 41.3343 4.70004 41.5348C4.50055 41.7354 4.26372 41.8944 4.00308 42.0029C3.74243 42.1114 3.46307 42.1673 3.18095 42.1673H-2.34338C-2.6255 42.1673 -2.90486 42.1114 -3.16551 42.0029C-3.42615 41.8944 -3.66298 41.7354 -3.86247 41.5348C-4.06196 41.3343 -4.22021 41.0963 -4.32817 40.8343C-4.43613 40.5723 -4.4917 40.2915 -4.4917 40.008C-4.4917 39.7244 -4.43613 39.4436 -4.32817 39.1816C-4.22021 38.9196 -4.06196 38.6816 -3.86247 38.4811C-3.66298 38.2806 -3.42615 38.1215 -3.16551 38.013C-2.90486 37.9045 -2.6255 37.8486 -2.34338 37.8486Z" fill="url(#paint5_linear_166_1968)"/>
<path id="Path 522" d="M-2.34338 51.915H3.18095C3.46307 51.915 3.74243 51.9709 4.00308 52.0794C4.26372 52.1879 4.50055 52.347 4.70004 52.5475C4.89953 52.748 5.05778 52.986 5.16574 53.248C5.2737 53.51 5.32927 53.7908 5.32927 54.0744C5.32927 54.3579 5.2737 54.6387 5.16574 54.9007C5.05778 55.1627 4.89953 55.4007 4.70004 55.6013C4.50055 55.8018 4.26372 55.9608 4.00308 56.0693C3.74243 56.1779 3.46307 56.2337 3.18095 56.2337H-2.34338C-2.6255 56.2337 -2.90486 56.1779 -3.16551 56.0693C-3.42615 55.9608 -3.66298 55.8018 -3.86247 55.6013C-4.06196 55.4007 -4.22021 55.1627 -4.32817 54.9007C-4.43613 54.6387 -4.4917 54.3579 -4.4917 54.0744C-4.4917 53.7908 -4.43613 53.51 -4.32817 53.248C-4.22021 52.986 -4.06196 52.748 -3.86247 52.5475C-3.66298 52.347 -3.42615 52.1879 -3.16551 52.0794C-2.90486 51.9709 -2.6255 51.915 -2.34338 51.915Z" fill="url(#paint6_linear_166_1968)"/>
<path id="Path 515" d="M41.6404 63.8853L37.6531 53.2793L50.351 56.7259L41.6404 63.8853Z" fill="#35495E"/>
<path id="Path 516" d="M37.6519 53.2789L48.9934 10.7356C49.2973 10.0822 49.8023 9.54453 50.434 9.20226C51.1898 8.95573 51.9956 8.90509 52.7761 9.05496L60.1005 11.1169C60.7015 11.4452 61.1998 11.935 61.5398 12.5316C61.7729 13.1716 61.8235 13.8642 61.6862 14.5316L50.434 56.781L37.6519 53.2789Z" fill="url(#paint7_linear_166_1968)"/>
<path id="Path 518" d="M47.1902 17.5309L48.9986 10.7356C49.2993 10.0805 49.8047 9.54204 50.4379 9.20225C51.1946 8.95573 52.0012 8.90509 52.7826 9.05496L60.107 11.1169C60.7064 11.4469 61.2039 11.9363 61.545 12.5316C61.7791 13.1712 61.8309 13.8638 61.6952 14.5316L59.971 21.0329L47.1902 17.5309Z" fill="url(#paint8_linear_166_1968)"/>
<path id="Path 517" d="M50.3522 56.7847L46.3027 60.1147L39.5172 58.2854L37.5986 53.2188L50.3522 56.7847Z" fill="#EEEA7C"/>
<path id="Path 519" d="M59.9646 21.0356L58.7624 25.5063L45.9492 21.9123L47.2149 17.4336L59.9646 21.0356Z" fill="url(#paint9_linear_166_1968)"/>
</g>
</g>
</g>
</g>
</g>
</g>
<defs>
<linearGradient id="paint0_linear_166_1968" x1="35.5346" y1="-6.78223" x2="176.753" y2="143.459" gradientUnits="userSpaceOnUse">
<stop stop-color="#F0C419"/>
<stop offset="1" stop-color="#78620D"/>
</linearGradient>
<linearGradient id="paint1_linear_166_1968" x1="-2.34934" y1="-7.00069" x2="55.651" y2="-4.44632" gradientUnits="userSpaceOnUse">
<stop stop-color="#F3D55B"/>
<stop offset="1" stop-color="#8F7402"/>
</linearGradient>
<linearGradient id="paint2_linear_166_1968" x1="17.5199" y1="-1.99" x2="54.8762" y2="5.83783" gradientUnits="userSpaceOnUse">
<stop stop-color="#E57E25"/>
<stop offset="1" stop-color="#733F13"/>
</linearGradient>
<linearGradient id="paint3_linear_166_1968" x1="0.418786" y1="8.35742" x2="3.59574" y2="33.1158" gradientUnits="userSpaceOnUse">
<stop stop-color="#BEBEBE"/>
<stop offset="1" stop-color="#5F5F5F"/>
</linearGradient>
<linearGradient id="paint4_linear_166_1968" x1="0.418786" y1="22.4238" x2="3.59574" y2="47.1822" gradientUnits="userSpaceOnUse">
<stop stop-color="#BEBEBE"/>
<stop offset="1" stop-color="#5F5F5F"/>
</linearGradient>
<linearGradient id="paint5_linear_166_1968" x1="0.418786" y1="37.8486" x2="3.59574" y2="62.607" gradientUnits="userSpaceOnUse">
<stop stop-color="#BEBEBE"/>
<stop offset="1" stop-color="#5F5F5F"/>
</linearGradient>
<linearGradient id="paint6_linear_166_1968" x1="0.418786" y1="51.915" x2="3.59574" y2="76.6734" gradientUnits="userSpaceOnUse">
<stop stop-color="#BEBEBE"/>
<stop offset="1" stop-color="#5F5F5F"/>
</linearGradient>
<linearGradient id="paint7_linear_166_1968" x1="49.7068" y1="8.9707" x2="77.9984" y2="53.4611" gradientUnits="userSpaceOnUse">
<stop stop-color="#11B9E1"/>
<stop offset="1" stop-color="#345D66"/>
</linearGradient>
<linearGradient id="paint8_linear_166_1968" x1="54.4797" y1="8.9707" x2="49.2365" y2="23.8757" gradientUnits="userSpaceOnUse">
<stop stop-color="#FF5364"/>
<stop offset="1" stop-color="#802A32"/>
</linearGradient>
<linearGradient id="paint9_linear_166_1968" x1="52.9569" y1="17.4336" x2="56.268" y2="32.8507" gradientUnits="userSpaceOnUse">
<stop stop-color="#95A5A5"/>
<stop offset="1" stop-color="#4B5353"/>
</linearGradient>
<clipPath id="clip0_166_1968">
<rect width="65" height="66" fill="white"/>
</clipPath>
</defs>
</svg>
