<svg width="64" height="65" viewBox="0 0 64 65" fill="none" xmlns="http://www.w3.org/2000/svg">
<g id="Group 3320">
<g id="Clip path group">
<mask id="mask0_166_1924" style="mask-type:luminance" maskUnits="userSpaceOnUse" x="0" y="0" width="64" height="65">
<g id="clip-path">
<path id="Rectangle 2939" d="M48.3265 0H15.6735C7.01725 0 0 7.05491 0 15.7576V49.2424C0 57.9451 7.01725 65 15.6735 65H48.3265C56.9827 65 64 57.9451 64 49.2424V15.7576C64 7.05491 56.9827 0 48.3265 0Z" fill="white"/>
</g>
</mask>
<g mask="url(#mask0_166_1924)">
<g id="Mask Group 8">
<g id="Account Ledger">
<g id="Group 1032">
<path id="Path 676" d="M-18.0894 3.00293H63.975V64.7135H-18.0894V3.00293Z" fill="url(#paint0_linear_166_1924)"/>
<g id="Path 677">
<path id="Vector" d="M59.6452 60.3603H-13.7598V-1.0293H59.6452V60.3603Z" fill="url(#paint1_linear_166_1924)"/>
<path id="Vector_2" d="M-13.4331 -0.700856V60.0322H59.3188V-0.700856H-13.4331ZM-14.0862 -1.35742H59.9719V60.6888H-14.0862V-1.35742Z" fill="#CFCFCF"/>
</g>
</g>
<g id="Group 1031">
<path id="Path 692" d="M42.6499 3.625H56.1604V5.8048H42.6499V3.625Z" fill="#D3D3D3"/>
<path id="Path 693" d="M42.6499 10.332H56.1604V12.5118H42.6499V10.332Z" fill="#D3D3D3"/>
<path id="Path 694" d="M42.6499 17.041H56.1604V19.2208H42.6499V17.041Z" fill="#D3D3D3"/>
<path id="Path 695" d="M42.6499 23.748H56.1604V25.9278H42.6499V23.748Z" fill="#D3D3D3"/>
<path id="Path 696" d="M32.1416 23.748H40.8149V25.9278H32.1416V23.748Z" fill="#D3D3D3"/>
<path id="Path 674" d="M34.6435 23.7481H62.6657C62.8412 23.7476 63.0151 23.782 63.1773 23.8492C63.3396 23.9164 63.487 24.0152 63.6113 24.1398C63.7355 24.2644 63.8341 24.4124 63.9013 24.5753C63.9686 24.7383 64.0032 24.913 64.0032 25.0894V63.6587C64.0032 64.0145 63.8626 64.3556 63.6124 64.6072C63.3622 64.8588 63.0229 65.0001 62.669 65.0001H34.6435C34.2897 65.0001 33.9503 64.8588 33.7001 64.6072C33.4499 64.3556 33.3093 64.0145 33.3093 63.6587V25.0894C33.3093 24.7337 33.4499 24.3925 33.7001 24.1409C33.9503 23.8894 34.2897 23.7481 34.6435 23.7481Z" fill="url(#paint2_linear_166_1924)"/>
<path id="Path 688" d="M36.1448 26.2637H61.1642V31.6298H36.1448V26.2637Z" fill="#80D6FB"/>
<path id="Path 689" d="M33.3093 33.8096H64.0032V34.648H33.3093V33.8096Z" fill="#466089"/>
<path id="Path 678" d="M36.9787 36.8281H46.9856C47.2068 36.8281 47.4189 36.9165 47.5753 37.0737C47.7317 37.2309 47.8196 37.4442 47.8196 37.6666V47.7271C47.8197 47.8373 47.7983 47.9465 47.7564 48.0484C47.7146 48.1502 47.6532 48.2428 47.5758 48.3208C47.4983 48.3988 47.4063 48.4607 47.305 48.5029C47.2038 48.5451 47.0952 48.5669 46.9856 48.5669H36.9787C36.8691 48.5669 36.7606 48.5451 36.6593 48.5029C36.558 48.4607 36.466 48.3988 36.3886 48.3208C36.3111 48.2428 36.2497 48.1502 36.2079 48.0484C36.166 47.9465 36.1446 47.8373 36.1448 47.7271V37.6666C36.1448 37.4442 36.2326 37.2309 36.389 37.0737C36.5454 36.9165 36.7576 36.8281 36.9787 36.8281Z" fill="white"/>
<path id="Path 679" d="M50.3227 36.8281H60.3296C60.5508 36.8281 60.7629 36.9165 60.9193 37.0737C61.0757 37.2309 61.1635 37.4442 61.1635 37.6666V47.7271C61.1637 47.8373 61.1423 47.9465 61.1004 48.0484C61.0586 48.1502 60.9972 48.2428 60.9197 48.3208C60.8423 48.3988 60.7503 48.4607 60.649 48.5029C60.5478 48.5451 60.4392 48.5669 60.3296 48.5669H50.3227C50.2131 48.5669 50.1046 48.5451 50.0033 48.5029C49.902 48.4607 49.81 48.3988 49.7326 48.3208C49.6551 48.2428 49.5937 48.1502 49.5519 48.0484C49.51 47.9465 49.4886 47.8373 49.4888 47.7271V37.6666C49.4888 37.4442 49.5766 37.2309 49.733 37.0737C49.8894 36.9165 50.1015 36.8281 50.3227 36.8281Z" fill="white"/>
<path id="Path 675" d="M50.3227 50.2441H60.3296C60.5508 50.2441 60.7629 50.3325 60.9193 50.4897C61.0757 50.6469 61.1635 50.8602 61.1635 51.0826V61.1431C61.1637 61.2533 61.1423 61.3625 61.1004 61.4644C61.0586 61.5663 60.9972 61.6588 60.9197 61.7368C60.8423 61.8148 60.7503 61.8767 60.649 61.9189C60.5478 61.9611 60.4392 61.9829 60.3296 61.9829H50.3227C50.2131 61.9829 50.1046 61.9611 50.0033 61.9189C49.902 61.8767 49.81 61.8148 49.7326 61.7368C49.6551 61.6588 49.5937 61.5663 49.5519 61.4644C49.51 61.3625 49.4886 61.2533 49.4888 61.1431V51.0826C49.4888 50.8602 49.5766 50.6469 49.733 50.4897C49.8894 50.3325 50.1015 50.2441 50.3227 50.2441Z" fill="white"/>
<path id="Path 680" d="M36.9787 50.2441H46.9856C47.2068 50.2441 47.4189 50.3325 47.5753 50.4897C47.7317 50.6469 47.8196 50.8602 47.8196 51.0826V61.1431C47.8197 61.2533 47.7983 61.3625 47.7564 61.4644C47.7146 61.5663 47.6532 61.6588 47.5758 61.7368C47.4983 61.8148 47.4063 61.8767 47.305 61.9189C47.2038 61.9611 47.0952 61.9829 46.9856 61.9829H36.9787C36.8691 61.9829 36.7606 61.9611 36.6593 61.9189C36.558 61.8767 36.466 61.8148 36.3886 61.7368C36.3111 61.6588 36.2497 61.5663 36.2079 61.4644C36.166 61.3625 36.1446 61.2533 36.1448 61.1431V51.0826C36.1448 50.8602 36.2326 50.6469 36.389 50.4897C36.5454 50.3325 36.7576 50.2441 36.9787 50.2441Z" fill="white"/>
<path id="Path 681" d="M41.1486 46.5543V43.7061H38.313V42.0266H41.1486V39.1758H42.8191V42.0266H45.6547V43.7061H42.8191V46.5569L41.1486 46.5543Z" fill="#6E83B7"/>
<path id="Path 682" d="M38.7982 58.3152L40.8014 56.3013L38.7964 54.2854L39.9776 53.0979L41.9827 55.1137L43.9877 53.0979L45.169 54.2854L43.1639 56.3013L45.169 58.3171L43.9877 59.5047L41.9827 57.4888L39.9776 59.5047L38.7982 58.3152Z" fill="#6E83B7"/>
<path id="Path 683" d="M51.657 42.0273H58.9961V43.7042H51.657V42.0273Z" fill="#6E83B7"/>
<path id="Path 684" d="M51.657 55.4414H58.9961V57.1183H51.657V55.4414Z" fill="#6E83B7"/>
<path id="Path 685" d="M55.3259 52.4238C55.5238 52.4238 55.7172 52.4828 55.8818 52.5933C56.0463 52.7039 56.1745 52.861 56.2503 53.0448C56.326 53.2286 56.3458 53.4308 56.3072 53.6259C56.2686 53.821 56.1733 54.0003 56.0334 54.1409C55.8935 54.2816 55.7152 54.3774 55.5211 54.4162C55.327 54.455 55.1259 54.4351 54.9431 54.359C54.7602 54.2828 54.604 54.1539 54.4941 53.9885C54.3841 53.8231 54.3254 53.6286 54.3254 53.4297C54.3254 53.1629 54.4308 52.9071 54.6185 52.7184C54.8061 52.5298 55.0606 52.4238 55.3259 52.4238Z" fill="#6E83B7"/>
<path id="Path 686" d="M55.3259 58.125C55.5238 58.125 55.7172 58.184 55.8818 58.2945C56.0463 58.405 56.1745 58.5621 56.2503 58.7459C56.326 58.9297 56.3458 59.132 56.3072 59.3271C56.2686 59.5222 56.1733 59.7014 56.0334 59.8421C55.8935 59.9828 55.7152 60.0786 55.5211 60.1174C55.327 60.1562 55.1259 60.1363 54.9431 60.0602C54.7602 59.984 54.604 59.8551 54.4941 59.6897C54.3841 59.5243 54.3254 59.3298 54.3254 59.1309C54.3254 58.8641 54.4308 58.6082 54.6185 58.4196C54.8061 58.231 55.0606 58.125 55.3259 58.125Z" fill="#6E83B7"/>
</g>
<g id="Group 1030">
<path id="Path 698" d="M24.0999 -1.35742H26.2902V60.5961H24.0999V-1.35742Z" fill="#D3D3D3"/>
<path id="Path 687" d="M25.2643 3.625C26.149 3.625 26.9975 3.97834 27.6231 4.60729C28.2487 5.23623 28.6001 6.08927 28.6001 6.97874V48.9018H21.9285V6.97874C21.9285 6.08927 22.2799 5.23623 22.9055 4.60729C23.5311 3.97834 24.3796 3.625 25.2643 3.625Z" fill="url(#paint3_linear_166_1924)"/>
<path id="Path 673" d="M22.0168 48.9023L25.0959 55.3925L28.4984 48.9023H22.0168Z" fill="url(#paint4_linear_166_1924)"/>
<path id="Path 697" d="M21.9285 10.333H28.6001V11.8431H21.9285V10.333Z" fill="url(#paint5_linear_166_1924)"/>
<path id="Path 690" d="M26.7656 12.0098H30.1015V30.456H26.7656V12.0098Z" fill="url(#paint6_linear_166_1924)"/>
</g>
<g id="Group 1029">
<path id="Path 691" d="M-10.0579 3.625H18.1309V6.1403H-10.0579V3.625Z" fill="#D3D3D3"/>
<path id="Path 667" d="M-10.0579 10.332H18.1309V12.8473H-10.0579V10.332Z" fill="#D3D3D3"/>
<path id="Path 670" d="M-10.0579 40.3496H18.1309V42.8649H-10.0579V40.3496Z" fill="#D3D3D3"/>
<path id="Path 671" d="M-10.0579 46.7217H18.1309V49.237H-10.0579V46.7217Z" fill="#D3D3D3"/>
<path id="Path 672" d="M-10.0579 53.4297H18.1309V55.945H-10.0579V53.4297Z" fill="#D3D3D3"/>
<path id="Path 668" d="M-10.0579 14.8604H3.00336V35.3058H-10.0579V14.8604Z" fill="#D3D3D3"/>
<path id="Path 669" d="M5.06958 14.8604H18.1308V35.3058H5.06958V14.8604Z" fill="#D3D3D3"/>
</g>
</g>
</g>
</g>
</g>
</g>
<defs>
<linearGradient id="paint0_linear_166_1924" x1="30.9851" y1="-36.6153" x2="-1.51479" y2="90.9104" gradientUnits="userSpaceOnUse">
<stop stop-color="#80D6FB"/>
<stop offset="1" stop-color="#005C85"/>
</linearGradient>
<linearGradient id="paint1_linear_166_1924" x1="22.9427" y1="-1.0293" x2="44.8287" y2="63.1117" gradientUnits="userSpaceOnUse">
<stop stop-color="#EDEFF1"/>
<stop offset="1" stop-color="#F9F9F9"/>
</linearGradient>
<linearGradient id="paint2_linear_166_1924" x1="48.6563" y1="23.748" x2="88.167" y2="59.2995" gradientUnits="userSpaceOnUse">
<stop stop-color="#6E83B7"/>
<stop offset="1" stop-color="#37425C"/>
</linearGradient>
<linearGradient id="paint3_linear_166_1924" x1="21.9285" y1="3.625" x2="74.3385" y2="5.02527" gradientUnits="userSpaceOnUse">
<stop stop-color="#6E83B7"/>
<stop offset="1" stop-color="#37425C"/>
</linearGradient>
<linearGradient id="paint4_linear_166_1924" x1="25.2576" y1="48.9023" x2="25.2576" y2="55.3925" gradientUnits="userSpaceOnUse">
<stop stop-color="#123B7B"/>
<stop offset="1" stop-color="#001941"/>
</linearGradient>
<linearGradient id="paint5_linear_166_1924" x1="21.9285" y1="8.95882" x2="22.4293" y2="12.0787" gradientUnits="userSpaceOnUse">
<stop stop-color="#466089"/>
<stop offset="1" stop-color="#233045"/>
</linearGradient>
<linearGradient id="paint6_linear_166_1924" x1="28.4335" y1="12.0098" x2="33.2438" y2="12.0098" gradientUnits="userSpaceOnUse">
<stop stop-color="#D3D3D3"/>
<stop offset="1" stop-color="#6A6A6A"/>
</linearGradient>
</defs>
</svg>
