<svg xmlns="http://www.w3.org/2000/svg" width="40.98" height="42.498" viewBox="0 0 40.98 42.498">
  <g id="list" transform="translate(0)">
    <path id="Path_1698" data-name="Path 1698" d="M14.625,5.625H39.669V8.661H14.625Z" transform="translate(1.311 -1.072)" fill="#bebebe"/>
    <path id="Path_1699" data-name="Path 1699" d="M2.813,8.321A6.071,6.071,0,1,0,8.884,2.25,6.071,6.071,0,0,0,2.813,8.321ZM8.884,5.286A3.036,3.036,0,1,1,5.849,8.321,3.036,3.036,0,0,1,8.884,5.286Z" transform="translate(-2.813 -2.25)" fill="#bebebe"/>
    <path id="Path_1700" data-name="Path 1700" d="M14.625,16.875H39.669v3.036H14.625Z" transform="translate(1.311 2.856)" fill="#bebebe"/>
    <path id="Path_1701" data-name="Path 1701" d="M8.884,25.642a6.071,6.071,0,1,0-6.071-6.071,6.071,6.071,0,0,0,6.071,6.071Zm0-9.107a3.036,3.036,0,1,1-3.036,3.036,3.036,3.036,0,0,1,3.036-3.036Z" transform="translate(-2.813 1.678)" fill="#bebebe"/>
    <path id="Path_1702" data-name="Path 1702" d="M14.625,28.125H39.669v3.036H14.625Z" transform="translate(1.311 6.784)" fill="#bebebe"/>
    <path id="Path_1703" data-name="Path 1703" d="M8.884,36.892a6.071,6.071,0,1,0-6.071-6.071,6.071,6.071,0,0,0,6.071,6.071Zm0-9.107a3.036,3.036,0,1,1-3.036,3.036A3.036,3.036,0,0,1,8.884,27.786Z" transform="translate(-2.813 5.605)" fill="#bebebe"/>
  </g>
</svg>
