<svg width="18" height="19" viewBox="0 0 18 19" fill="none" xmlns="http://www.w3.org/2000/svg">
<g id="vuesax/linear/note-favorite">
<g id="note-favorite">
<path id="Vector" d="M6 2V4.25" stroke="#0A9EF3" stroke-width="1.5" stroke-miterlimit="10" stroke-linecap="round" stroke-linejoin="round"/>
<path id="Vector_2" d="M12 2V4.25" stroke="#0A9EF3" stroke-width="1.5" stroke-miterlimit="10" stroke-linecap="round" stroke-linejoin="round"/>
<path id="Vector_3" d="M15.75 6.875V10.7225C15.0825 10.19 14.235 9.875 13.3125 9.875C12.39 9.875 11.5275 10.1975 10.8525 10.745C9.945 11.4575 9.375 12.575 9.375 13.8125C9.375 14.5475 9.58501 15.2525 9.94501 15.8375C10.2225 16.295 10.5825 16.6925 11.01 17H6C3.375 17 2.25 15.5 2.25 13.25V6.875C2.25 4.625 3.375 3.125 6 3.125H12C14.625 3.125 15.75 4.625 15.75 6.875Z" stroke="#0A9EF3" stroke-width="1.5" stroke-miterlimit="10" stroke-linecap="round" stroke-linejoin="round"/>
<path id="Vector_4" d="M5.25 8.75H9.75" stroke="#0A9EF3" stroke-width="1.5" stroke-miterlimit="10" stroke-linecap="round" stroke-linejoin="round"/>
<path id="Vector_5" d="M5.25 12.5H7.215" stroke="#0A9EF3" stroke-width="1.5" stroke-miterlimit="10" stroke-linecap="round" stroke-linejoin="round"/>
<path id="Vector_6" d="M17.25 13.8125C17.25 14.5475 17.04 15.2525 16.68 15.8375C16.47 16.1975 16.2075 16.5125 15.9 16.7675C15.21 17.3825 14.31 17.75 13.3125 17.75C12.45 17.75 11.655 17.4725 11.01 17C10.5825 16.6925 10.2225 16.295 9.94501 15.8375C9.58501 15.2525 9.375 14.5475 9.375 13.8125C9.375 12.575 9.945 11.4575 10.8525 10.745C11.5275 10.1975 12.39 9.875 13.3125 9.875C14.235 9.875 15.0825 10.19 15.75 10.7225C16.665 11.4425 17.25 12.56 17.25 13.8125Z" stroke="#0A9EF3" stroke-width="1.5" stroke-miterlimit="10" stroke-linecap="round" stroke-linejoin="round"/>
<path id="Vector_7" d="M13.3125 15.6875C13.3125 14.6525 14.1525 13.8125 15.1875 13.8125C14.1525 13.8125 13.3125 12.9725 13.3125 11.9375C13.3125 12.9725 12.4725 13.8125 11.4375 13.8125C12.4725 13.8125 13.3125 14.6525 13.3125 15.6875Z" stroke="#0A9EF3" stroke-width="1.5" stroke-linecap="round" stroke-linejoin="round"/>
</g>
</g>
</svg>
