<svg width="64" height="65" viewBox="0 0 64 65" fill="none" xmlns="http://www.w3.org/2000/svg">
<g id="Group 3289" clip-path="url(#clip0_166_1553)">
<g id="Group 3289_2">
<g id="Clip path group">
<mask id="mask0_166_1553" style="mask-type:luminance" maskUnits="userSpaceOnUse" x="0" y="0" width="64" height="65">
<g id="clip-path">
<path id="Rectangle 10205" d="M48.3265 0H15.6735C7.01725 0 0 7.05491 0 15.7576V49.2424C0 57.9451 7.01725 65 15.6735 65H48.3265C56.9827 65 64 57.9451 64 49.2424V15.7576C64 7.05491 56.9827 0 48.3265 0Z" fill="white"/>
</g>
</mask>
<g mask="url(#mask0_166_1553)">
<g id="Mask Group 12">
<path id="Rectangle 10198" d="M48.3265 0H15.6735C7.01725 0 0 7.05491 0 15.7576V49.2424C0 57.9451 7.01725 65 15.6735 65H48.3265C56.9827 65 64 57.9451 64 49.2424V15.7576C64 7.05491 56.9827 0 48.3265 0Z" fill="#137397"/>
<g id="Payment">
<path id="Ellipse 314" d="M43.7792 52.7664C48.4475 52.7664 52.2318 48.856 52.2318 44.0321C52.2318 39.2083 48.4475 35.2979 43.7792 35.2979C39.111 35.2979 35.3267 39.2083 35.3267 44.0321C35.3267 48.856 39.111 52.7664 43.7792 52.7664Z" fill="#008465"/>
<g id="Group 764">
<path id="Subtraction 51" d="M32.5458 44.7126H11.2214V18.3252H52.2337V36.6335C50.6374 34.9956 48.5922 33.8727 46.3587 33.4079C44.1252 32.9432 41.8046 33.1576 39.6928 34.024C37.581 34.8903 35.7736 36.3692 34.5011 38.2723C33.2286 40.1753 32.5486 42.4162 32.5478 44.7093L32.5458 44.7126Z" fill="url(#paint0_linear_166_1553)"/>
<path id="Rectangle 2015" d="M52.779 21.624H11.2214V28.2212H52.779V21.624Z" fill="url(#paint1_linear_166_1553)"/>
<path id="Path 436" d="M46.2477 46.0989C46.2475 46.4644 46.1537 46.8237 45.9753 47.1422C45.7845 47.4826 45.5091 47.7675 45.176 47.9688C44.7926 48.1989 44.3578 48.3283 43.9117 48.345V49.2682H43.2991V48.345C42.6813 48.3135 42.0908 48.0792 41.6181 47.678C41.4097 47.4963 41.2433 47.2711 41.1305 47.0181C41.0177 46.7651 40.9613 46.4904 40.965 46.2132H42.0635C42.09 46.5212 42.2154 46.8122 42.4207 47.0424C42.6523 47.2903 42.9637 47.4478 43.2997 47.4869V44.6394C42.8817 44.5393 42.4722 44.4058 42.0753 44.2402C41.7604 44.0996 41.4869 43.8798 41.2811 43.602C41.0473 43.2614 40.9325 42.8525 40.9546 42.4392C40.9468 42.1533 41 41.8691 41.1105 41.6056C41.221 41.3421 41.3863 41.1054 41.5953 40.9114C42.0658 40.491 42.6697 40.2524 43.2991 40.2384V39.2949H43.9117V40.241C44.4845 40.2657 45.0321 40.4846 45.4653 40.8621C45.8605 41.2276 46.1036 41.7297 46.1458 42.2679H45.046C45.0052 41.9966 44.8825 41.7446 44.6947 41.5456C44.4859 41.3222 44.2111 41.1723 43.911 41.1182V43.8981C44.3262 44.0001 44.7337 44.1318 45.1303 44.292C45.4469 44.4272 45.7213 44.6459 45.9244 44.925C46.1564 45.2705 46.2699 45.6827 46.2477 46.0989ZM42.0067 42.3808C41.9967 42.5386 42.021 42.6967 42.078 42.8441C42.1349 42.9915 42.2231 43.1247 42.3365 43.2343C42.6186 43.466 42.9468 43.6341 43.2991 43.7274V41.0939C42.9519 41.1128 42.6209 41.2473 42.358 41.476C42.2384 41.5927 42.1451 41.7339 42.0845 41.89C42.0239 42.0461 41.9973 42.2135 42.0067 42.3808ZM43.9117 47.502C44.2746 47.4778 44.6158 47.3194 44.8697 47.0575C45.0975 46.8141 45.2218 46.4909 45.2158 46.1567C45.2256 45.9969 45.2002 45.8369 45.1414 45.6881C45.0826 45.5393 44.9918 45.4054 44.8756 45.2959C44.5933 45.0653 44.2643 44.8995 43.9117 44.8101V47.502Z" fill="white"/>
</g>
</g>
</g>
</g>
</g>
</g>
</g>
<defs>
<linearGradient id="paint0_linear_166_1553" x1="31.7276" y1="18.3252" x2="58.5203" y2="119.881" gradientUnits="userSpaceOnUse">
<stop stop-color="#2DC5BB"/>
<stop offset="1" stop-color="#17635E"/>
</linearGradient>
<linearGradient id="paint1_linear_166_1553" x1="43.8441" y1="26.7302" x2="41.9278" y2="4.55683" gradientUnits="userSpaceOnUse">
<stop/>
<stop offset="1" stop-color="#545454"/>
</linearGradient>
<clipPath id="clip0_166_1553">
<rect width="64" height="65" fill="white"/>
</clipPath>
</defs>
</svg>
