<svg width="24" height="24" viewBox="0 0 24 24" fill="none" xmlns="http://www.w3.org/2000/svg">
<g id="User/Person">
<g id="Icon">
<path fill-rule="evenodd" clip-rule="evenodd" d="M18.7107 16.239L18.9231 17.265C19.1245 18.152 18.9257 19.0841 18.381 19.8067C17.8363 20.5293 17.0027 20.9669 16.1078 21H7.89216C6.99727 20.9669 6.16365 20.5293 5.61899 19.8067C5.07433 19.0841 4.87552 18.152 5.07687 17.265L5.28935 16.239C5.53372 14.8501 6.70817 13.8294 8.09578 13.8H15.9042C17.2918 13.8294 18.4663 14.8501 18.7107 16.239ZM16.1078 19.641C16.5574 19.6357 16.9805 19.424 17.2587 19.065V19.074C17.6002 18.6386 17.7332 18.0712 17.6217 17.526L17.4092 16.5C17.2914 15.7397 16.6608 15.1703 15.9042 15.141H8.09578C7.33917 15.1703 6.70865 15.7397 6.59076 16.5L6.37828 17.526C6.26953 18.0683 6.40242 18.6318 6.74126 19.065C7.01954 19.424 7.44261 19.6357 7.89216 19.641H16.1078Z" fill="#527894"/>
<path fill-rule="evenodd" clip-rule="evenodd" d="M12.4426 12H11.5573C9.60156 12 8.01609 10.3882 8.01609 8.40001V6.02401C8.01373 5.22126 8.32637 4.4507 8.88474 3.88307C9.4431 3.31544 10.2011 2.99761 10.9907 3.00001H13.0092C13.7989 2.99761 14.5569 3.31544 15.1152 3.88307C15.6736 4.4507 15.9862 5.22126 15.9839 6.02401V8.40001C15.9839 10.3882 14.3984 12 12.4426 12ZM10.9907 4.35001C10.0813 4.35001 9.34406 5.09949 9.34406 6.02401V8.40001C9.34406 9.64264 10.335 10.65 11.5573 10.65H12.4426C13.665 10.65 14.6559 9.64264 14.6559 8.40001V6.02401C14.6559 5.58004 14.4824 5.15425 14.1736 4.84031C13.8648 4.52638 13.446 4.35001 13.0092 4.35001H10.9907Z" fill="#527894"/>
</g>
</g>
</svg>
