<svg width="66" height="67" viewBox="0 0 66 67" fill="none" xmlns="http://www.w3.org/2000/svg">
<g id="Group 3302" clip-path="url(#clip0_225_5887)">
<g id="Group 3302_2">
<g id="Clip path group">
<mask id="mask0_225_5887" style="mask-type:luminance" maskUnits="userSpaceOnUse" x="0" y="0" width="66" height="67">
<g id="clip-path">
<path id="Rectangle 10210" d="M49.8367 0H16.1633C7.23654 0 0 7.27198 0 16.2424V50.7576C0 59.728 7.23654 67 16.1633 67H49.8367C58.7635 67 66 59.728 66 50.7576V16.2424C66 7.27198 58.7635 0 49.8367 0Z" fill="white"/>
</g>
</mask>
<g mask="url(#mask0_225_5887)">
<g id="Mask Group 20">
<path id="Rectangle 3071" d="M49.8367 0H16.1633C7.23654 0 0 7.27198 0 16.2424V50.7576C0 59.728 7.23654 67 16.1633 67H49.8367C58.7635 67 66 59.728 66 50.7576V16.2424C66 7.27198 58.7635 0 49.8367 0Z" fill="#207EC5"/>
<g id="Group 1241">
<path id="Path 550" d="M12.2645 9.32251L0 48.2637L65.9079 48.2327L53.7368 9.32251H12.2645Z" fill="url(#paint0_linear_225_5887)"/>
<path id="Path 553" d="M20.7473 28.2427L19.3076 17.0449H47.0606L45.5756 28.5404L20.7473 28.2427Z" fill="url(#paint1_linear_225_5887)"/>
<path id="Path 552" d="M17.1473 38.5447L15.4531 26.9646H50.5761L49.3884 38.3342L17.1473 38.5447Z" fill="url(#paint2_linear_225_5887)"/>
<path id="Path 551" d="M13.0015 48.2636L11.5684 36.4397H54.6533L53.5149 48.1972L51.4267 59.1352L15.6822 59.4118L13.0015 48.2636Z" fill="url(#paint3_linear_225_5887)"/>
<path id="Path 549" d="M0.0732422 48.2197H21.3671L22.916 54.002H43.2496L44.6104 48.2197H66.0029L61.9364 79.334H4.3916L0.0732422 48.2197Z" fill="url(#paint4_linear_225_5887)"/>
<path id="Line 246" d="M14.499 60.5383H51.8698" stroke="white" stroke-width="5" stroke-linecap="round"/>
</g>
</g>
</g>
</g>
</g>
</g>
<defs>
<linearGradient id="paint0_linear_225_5887" x1="32.954" y1="9.32251" x2="41.0111" y2="79.978" gradientUnits="userSpaceOnUse">
<stop stop-color="#BC7905"/>
<stop offset="1" stop-color="#5E3D03"/>
</linearGradient>
<linearGradient id="paint1_linear_225_5887" x1="33.1841" y1="17.0449" x2="33.1841" y2="28.5404" gradientUnits="userSpaceOnUse">
<stop stop-color="white"/>
<stop offset="1" stop-color="#C2C2C2"/>
</linearGradient>
<linearGradient id="paint2_linear_225_5887" x1="33.0146" y1="26.9646" x2="33.0146" y2="38.5447" gradientUnits="userSpaceOnUse">
<stop stop-color="white"/>
<stop offset="1" stop-color="#AEAEAE"/>
</linearGradient>
<linearGradient id="paint3_linear_225_5887" x1="33.1108" y1="36.4397" x2="33.1108" y2="59.4118" gradientUnits="userSpaceOnUse">
<stop stop-color="white"/>
<stop offset="1" stop-color="#C8C8C8"/>
</linearGradient>
<linearGradient id="paint4_linear_225_5887" x1="33.0381" y1="48.2197" x2="39.3409" y2="116.662" gradientUnits="userSpaceOnUse">
<stop stop-color="#603300"/>
<stop offset="1" stop-color="#130A00"/>
</linearGradient>
<clipPath id="clip0_225_5887">
<rect width="66" height="67" fill="white"/>
</clipPath>
</defs>
</svg>
