<svg width="66" height="67" viewBox="0 0 66 67" fill="none" xmlns="http://www.w3.org/2000/svg">
<g id="Group 3303" clip-path="url(#clip0_225_5901)">
<g id="Group 3303_2">
<path id="Path 2355" d="M16.1633 0H49.8367C54.1235 0 58.2347 1.71125 61.2659 4.7573C64.2971 7.80334 66 11.9347 66 16.2424V50.7576C66 55.0653 64.2971 59.1967 61.2659 62.2427C58.2347 65.2887 54.1235 67 49.8367 67H16.1633C11.8765 67 7.76531 65.2887 4.73411 62.2427C1.70291 59.1967 0 55.0653 0 50.7576L0 16.2424C0 11.9347 1.70291 7.80334 4.73411 4.7573C7.76531 1.71125 11.8765 0 16.1633 0Z" fill="url(#paint0_linear_225_5901)"/>
<g id="Group 1240">
<path id="Path 433" d="M33.0029 16.0244H53.4724V46.4945L33.0029 53.0944V16.0244Z" fill="url(#paint1_linear_225_5901)"/>
<path id="Path 432" d="M12.5371 16.0244H33.0065V53.0944L12.5371 47.5943V16.0244Z" fill="url(#paint2_linear_225_5901)"/>
<g id="Group 761">
<path id="Path 430" d="M33.0059 15.8044L38.1713 28.3379H58.6122L53.4072 15.8044H33.0059Z" fill="url(#paint3_linear_225_5901)"/>
<path id="Path 431" d="M7.39062 28.3448C7.39062 28.3448 27.8341 28.7414 27.7499 28.3448C27.6725 27.9387 32.9627 15.9316 32.9627 15.9316H12.5982L7.39062 28.3448Z" fill="url(#paint4_linear_225_5901)"/>
</g>
<path id="Path 434" d="M18.1836 42.9306L20.8143 43.5135V39.7741L18.1836 39.1912V42.9306Z" fill="#F3BF66"/>
<path id="Ellipse 313" d="M46.5564 56.6097C52.8364 56.6097 57.9273 51.4938 57.9273 45.1831C57.9273 38.8724 52.8364 33.7566 46.5564 33.7566C40.2765 33.7566 35.1855 38.8724 35.1855 45.1831C35.1855 51.4938 40.2765 56.6097 46.5564 56.6097Z" fill="url(#paint5_linear_225_5901)"/>
<path id="Subtraction 50" d="M46.5537 56.6104V33.7566C48.0742 33.7537 49.5796 34.0592 50.9798 34.6547C51.6559 34.9424 52.3028 35.2953 52.9113 35.7084C53.5154 36.1187 54.0792 36.5859 54.5949 37.1039C55.1098 37.6218 55.5744 38.1879 55.9823 38.7945C56.3934 39.4059 56.7445 40.0559 57.0309 40.7354C57.6206 42.1434 57.9244 43.6556 57.9244 45.1832C57.9244 46.7107 57.6206 48.2229 57.0309 49.6309C56.7446 50.3106 56.3934 50.9609 55.9823 51.5725C55.574 52.1796 55.109 52.7462 54.5936 53.2644C54.0779 53.7824 53.5141 54.2497 52.9099 54.6599C52.3014 55.073 51.6546 55.4259 50.9784 55.7137C49.5785 56.3086 48.0736 56.6135 46.5537 56.6104Z" fill="#06A25A"/>
<path id="Icon awesome-check" d="M45.3234 49.6202L41.3109 45.588C41.2532 45.5304 41.2074 45.4618 41.1762 45.3863C41.145 45.3108 41.1289 45.2299 41.1289 45.1481C41.1289 45.0664 41.145 44.9854 41.1762 44.9099C41.2074 44.8344 41.2532 44.7659 41.3109 44.7082L42.1864 43.8284C42.2437 43.7704 42.3119 43.7243 42.387 43.6929C42.4622 43.6615 42.5427 43.6453 42.6241 43.6453C42.7055 43.6453 42.7861 43.6615 42.8612 43.6929C42.9363 43.7243 43.0045 43.7704 43.0619 43.8284L45.7645 46.5443L51.5563 40.7241C51.6137 40.6662 51.6819 40.6202 51.7571 40.5888C51.8322 40.5574 51.9127 40.5413 51.9941 40.5413C52.0755 40.5413 52.156 40.5574 52.2311 40.5888C52.3063 40.6202 52.3745 40.6662 52.4319 40.7241L53.3074 41.6039C53.365 41.6616 53.4108 41.7301 53.442 41.8056C53.4732 41.8811 53.4893 41.962 53.4893 42.0438C53.4893 42.1256 53.4732 42.2065 53.442 42.282C53.4108 42.3575 53.365 42.426 53.3074 42.4837L46.1962 49.6202C46.1389 49.6778 46.0709 49.7235 45.996 49.7547C45.9211 49.7859 45.8409 49.802 45.7598 49.802C45.6787 49.802 45.5985 49.7859 45.5236 49.7547C45.4487 49.7235 45.3807 49.6778 45.3234 49.6202Z" fill="white"/>
</g>
</g>
</g>
<defs>
<linearGradient id="paint0_linear_225_5901" x1="62.634" y1="67" x2="-8.80845" y2="-33.092" gradientUnits="userSpaceOnUse">
<stop stop-color="#59C7E3"/>
<stop offset="1" stop-color="#78E8B1"/>
</linearGradient>
<linearGradient id="paint1_linear_225_5901" x1="43.2376" y1="16.0244" x2="86.283" y2="42.012" gradientUnits="userSpaceOnUse">
<stop stop-color="#B85E00"/>
<stop offset="1" stop-color="#5C2F00"/>
</linearGradient>
<linearGradient id="paint2_linear_225_5901" x1="22.7718" y1="16.0244" x2="82.7496" y2="62.9813" gradientUnits="userSpaceOnUse">
<stop stop-color="#D4952D"/>
<stop offset="1" stop-color="#6A4B17"/>
</linearGradient>
<linearGradient id="paint3_linear_225_5901" x1="45.809" y1="15.8044" x2="51.9144" y2="53.0759" gradientUnits="userSpaceOnUse">
<stop stop-color="#F3BF66"/>
<stop offset="1" stop-color="#7A6033"/>
</linearGradient>
<linearGradient id="paint4_linear_225_5901" x1="7.39062" y1="15.9316" x2="15.4932" y2="68.5335" gradientUnits="userSpaceOnUse">
<stop stop-color="#F3BF66"/>
<stop offset="1" stop-color="#7A6033"/>
</linearGradient>
<linearGradient id="paint5_linear_225_5901" x1="40.689" y1="29.7116" x2="66.7853" y2="66.9339" gradientUnits="userSpaceOnUse">
<stop stop-color="#83E470"/>
<stop offset="1" stop-color="#427238"/>
</linearGradient>
<clipPath id="clip0_225_5901">
<rect width="66" height="67" fill="white"/>
</clipPath>
</defs>
</svg>
