<svg width="40" height="41" viewBox="0 0 40 41" fill="none" xmlns="http://www.w3.org/2000/svg">
<g id="Group 3303" clip-path="url(#clip0_208_1455)">
<g id="Group 3303_2">
<path id="Path 2355" d="M9.79592 0H30.2041C32.8021 0 35.2938 1.04718 37.1308 2.91118C38.9679 4.77518 40 7.3033 40 9.93939V31.0606C40 33.6967 38.9679 36.2248 37.1308 38.0888C35.2938 39.9528 32.8021 41 30.2041 41H9.79592C7.19788 41 4.70625 39.9528 2.86916 38.0888C1.03207 36.2248 0 33.6967 0 31.0606L0 9.93939C0 7.3033 1.03207 4.77518 2.86916 2.91118C4.70625 1.04718 7.19788 0 9.79592 0Z" fill="url(#paint0_linear_208_1455)"/>
<g id="Group 1240">
<path id="Path 433" d="M20.002 9.80615H32.4077V28.452L20.002 32.4907V9.80615Z" fill="url(#paint1_linear_208_1455)"/>
<path id="Path 432" d="M7.59802 9.80615H20.0037V32.4907L7.59802 29.125V9.80615Z" fill="url(#paint2_linear_208_1455)"/>
<g id="Group 761">
<path id="Path 430" d="M20.0038 9.67139L23.1344 17.3411H35.5228L32.3683 9.67139H20.0038Z" fill="url(#paint3_linear_208_1455)"/>
<path id="Path 431" d="M4.47925 17.3454C4.47925 17.3454 16.8692 17.5881 16.8182 17.3454C16.7713 17.0969 19.9775 9.74927 19.9775 9.74927H7.63534L4.47925 17.3454Z" fill="url(#paint4_linear_208_1455)"/>
</g>
<path id="Path 434" d="M11.0203 26.271L12.6147 26.6277V24.3394L11.0203 23.9827V26.271Z" fill="#F3BF66"/>
<path id="Ellipse 313" d="M28.2164 34.6417C32.0224 34.6417 35.1078 31.5111 35.1078 27.6493C35.1078 23.7876 32.0224 20.657 28.2164 20.657C24.4103 20.657 21.325 23.7876 21.325 27.6493C21.325 31.5111 24.4103 34.6417 28.2164 34.6417Z" fill="url(#paint5_linear_208_1455)"/>
<path id="Subtraction 50" d="M28.2144 34.6421V20.657C29.1358 20.6552 30.0482 20.8421 30.8968 21.2066C31.3066 21.3826 31.6986 21.5986 32.0674 21.8514C32.4336 22.1024 32.7753 22.3884 33.0878 22.7053C33.3999 23.0223 33.6814 23.3687 33.9286 23.7399C34.1778 24.114 34.3906 24.5118 34.5642 24.9276C34.9216 25.7892 35.1057 26.7146 35.1057 27.6494C35.1057 28.5842 34.9216 29.5095 34.5642 30.3711C34.3906 30.787 34.1778 31.185 33.9286 31.5593C33.6812 31.9308 33.3994 32.2775 33.087 32.5946C32.7744 32.9116 32.4328 33.1975 32.0666 33.4486C31.6978 33.7014 31.3058 33.9173 30.896 34.0934C30.0476 34.4574 29.1355 34.6441 28.2144 34.6421Z" fill="#06A25A"/>
<path id="Icon awesome-check" d="M27.4686 30.3646L25.0368 27.8972C25.0018 27.8619 24.9741 27.8199 24.9552 27.7737C24.9363 27.7275 24.9265 27.678 24.9265 27.628C24.9265 27.5779 24.9363 27.5284 24.9552 27.4822C24.9741 27.436 25.0018 27.3941 25.0368 27.3588L25.5674 26.8204C25.6022 26.7849 25.6435 26.7567 25.689 26.7375C25.7346 26.7182 25.7834 26.7083 25.8327 26.7083C25.882 26.7083 25.9309 26.7182 25.9764 26.7375C26.0219 26.7567 26.0633 26.7849 26.098 26.8204L27.736 28.4823L31.2462 24.9207C31.281 24.8853 31.3223 24.8571 31.3678 24.8379C31.4134 24.8187 31.4622 24.8088 31.5115 24.8088C31.5608 24.8088 31.6096 24.8187 31.6551 24.8379C31.7007 24.8571 31.742 24.8853 31.7768 24.9207L32.3074 25.4591C32.3423 25.4944 32.3701 25.5363 32.389 25.5825C32.4079 25.6287 32.4177 25.6783 32.4177 25.7283C32.4177 25.7783 32.4079 25.8279 32.389 25.8741C32.3701 25.9203 32.3423 25.9622 32.3074 25.9975L27.9976 30.3646C27.9629 30.3999 27.9217 30.4279 27.8763 30.4469C27.8309 30.466 27.7822 30.4758 27.7331 30.4758C27.684 30.4758 27.6353 30.466 27.59 30.4469C27.5446 30.4279 27.5033 30.3999 27.4686 30.3646Z" fill="white"/>
</g>
</g>
</g>
<defs>
<linearGradient id="paint0_linear_208_1455" x1="37.96" y1="41" x2="-5.89406" y2="-19.8499" gradientUnits="userSpaceOnUse">
<stop stop-color="#59C7E3"/>
<stop offset="1" stop-color="#78E8B1"/>
</linearGradient>
<linearGradient id="paint1_linear_208_1455" x1="26.2048" y1="9.80615" x2="52.4268" y2="25.485" gradientUnits="userSpaceOnUse">
<stop stop-color="#B85E00"/>
<stop offset="1" stop-color="#5C2F00"/>
</linearGradient>
<linearGradient id="paint2_linear_208_1455" x1="13.8009" y1="9.80615" x2="50.4171" y2="38.1978" gradientUnits="userSpaceOnUse">
<stop stop-color="#D4952D"/>
<stop offset="1" stop-color="#6A4B17"/>
</linearGradient>
<linearGradient id="paint3_linear_208_1455" x1="27.7633" y1="9.67139" x2="31.5337" y2="32.4677" gradientUnits="userSpaceOnUse">
<stop stop-color="#F3BF66"/>
<stop offset="1" stop-color="#7A6033"/>
</linearGradient>
<linearGradient id="paint4_linear_208_1455" x1="4.47925" y1="9.74927" x2="9.4834" y2="41.9239" gradientUnits="userSpaceOnUse">
<stop stop-color="#F3BF66"/>
<stop offset="1" stop-color="#7A6033"/>
</linearGradient>
<linearGradient id="paint5_linear_208_1455" x1="24.6604" y1="18.1817" x2="40.6817" y2="40.8141" gradientUnits="userSpaceOnUse">
<stop stop-color="#83E470"/>
<stop offset="1" stop-color="#427238"/>
</linearGradient>
<clipPath id="clip0_208_1455">
<rect width="40" height="41" fill="white"/>
</clipPath>
</defs>
</svg>
