<svg width="41" height="42" viewBox="0 0 41 42" fill="none" xmlns="http://www.w3.org/2000/svg">
<g id="Group 3273 1" clip-path="url(#clip0_214_1474)">
<g id="Group 3273">
<g id="Clip path group">
<mask id="mask0_214_1474" style="mask-type:luminance" maskUnits="userSpaceOnUse" x="0" y="0" width="41" height="42">
<g id="clip-path">
<path id="Rectangle 10294" d="M41 0H0V42H41V0Z" fill="white"/>
</g>
</mask>
<g mask="url(#mask0_214_1474)">
<g id="Group 3302">
<g id="Group 3272">
<path id="Path 2477" d="M30.9594 0H10.0407C8.71885 0.00304201 7.41055 0.268832 6.19052 0.782189C4.9705 1.29555 3.86265 2.04641 2.93024 2.9919C1.99784 3.93738 1.25916 5.05897 0.756387 6.29258C0.253614 7.5262 -0.00339654 8.84769 3.38925e-05 10.1816V31.8184C-0.00339654 33.1523 0.253614 34.4738 0.756387 35.7074C1.25916 36.941 1.99784 38.0626 2.93024 39.0081C3.86265 39.9536 4.9705 40.7045 6.19052 41.2178C7.41055 41.7312 8.71885 41.997 10.0407 42H30.9594C32.2812 41.997 33.5895 41.7312 34.8095 41.2178C36.0296 40.7045 37.1374 39.9536 38.0698 39.0081C39.0022 38.0626 39.7409 36.941 40.2437 35.7074C40.7465 34.4738 41.0035 33.1523 41 31.8184V10.1816C41.0035 8.84769 40.7465 7.5262 40.2437 6.29258C39.7409 5.05897 39.0022 3.93738 38.0698 2.9919C37.1374 2.04641 36.0296 1.29555 34.8095 0.782189C33.5895 0.268832 32.2812 0.00304201 30.9594 0Z" fill="#207EC5"/>
</g>
</g>
</g>
</g>
<g id="Report">
<path id="Path 409" d="M10.3344 10.1008H30.6654C31.0025 10.1008 31.3258 10.236 31.5641 10.4765C31.8025 10.717 31.9364 11.0432 31.9364 11.3834V34.4646C31.9364 34.8047 31.8025 35.131 31.5641 35.3715C31.3258 35.612 31.0025 35.7472 30.6654 35.7472H10.3344C9.99726 35.7472 9.67398 35.612 9.43562 35.3715C9.19726 35.131 9.06335 34.8047 9.06335 34.4646V11.3834C9.06335 11.0432 9.19726 10.717 9.43562 10.4765C9.67398 10.236 9.99726 10.1008 10.3344 10.1008Z" fill="#005288"/>
<g id="Path 410">
<path id="Vector" d="M30.6657 34.4026H10.3341C9.66766 34.4026 9.12549 33.8554 9.12549 33.1829V10.1012C9.12549 9.42871 9.66766 8.88159 10.3341 8.88159H30.6657C31.3321 8.88159 31.8743 9.42871 31.8743 10.1012V33.1829C31.8743 33.8554 31.3321 34.4026 30.6657 34.4026Z" fill="white"/>
<path id="Vector_2" d="M10.3341 8.94422C9.7019 8.94422 9.1876 9.46322 9.1876 10.1012V33.1829C9.1876 33.8208 9.7019 34.3398 10.3341 34.3398H30.6656C31.2978 34.3398 31.8121 33.8208 31.8121 33.1829V10.1012C31.8121 9.46322 31.2978 8.94422 30.6656 8.94422H10.3341ZM10.3341 8.81885H30.6656C31.3674 8.81885 31.9364 9.39296 31.9364 10.1012V33.1829C31.9364 33.8911 31.3674 34.4652 30.6656 34.4652H10.3341C9.63228 34.4652 9.06335 33.8911 9.06335 33.1829V10.1012C9.06335 9.39296 9.63228 8.81885 10.3341 8.81885Z" fill="#101010"/>
</g>
<path id="Path 411" d="M10.3344 7.53564H30.6666C31.0037 7.53564 31.327 7.67077 31.5654 7.9113C31.8037 8.15183 31.9376 8.47805 31.9376 8.81821V31.8994C31.9376 32.2396 31.8037 32.5658 31.5654 32.8063C31.327 33.0468 31.0037 33.182 30.6666 33.182H10.3344C9.99726 33.182 9.67398 33.0468 9.43562 32.8063C9.19726 32.5658 9.06335 32.2396 9.06335 31.8994V8.81821C9.06335 8.47805 9.19726 8.15183 9.43562 7.9113C9.67398 7.67077 9.99726 7.53564 10.3344 7.53564Z" fill="url(#paint0_linear_214_1474)"/>
<path id="Path 419" d="M12.8763 6.25366C13.2133 6.25383 13.5365 6.38903 13.7747 6.62954C14.0129 6.87005 14.1467 7.19618 14.1467 7.53623V8.81817C14.1394 9.15334 14.0023 9.47228 13.7648 9.7067C13.5273 9.94112 13.2083 10.0724 12.876 10.0724C12.5438 10.0724 12.2248 9.94112 11.9873 9.7067C11.7498 9.47228 11.6127 9.15334 11.6053 8.81817V7.53623C11.6053 7.19607 11.7393 6.86985 11.9776 6.62932C12.216 6.38879 12.5393 6.25366 12.8763 6.25366Z" fill="#016481"/>
<path id="Path 417" d="M17.9585 6.25366C18.2955 6.25383 18.6186 6.38903 18.8568 6.62954C19.0951 6.87005 19.2289 7.19618 19.2289 7.53623V8.81817C19.2215 9.15334 19.0844 9.47228 18.8469 9.7067C18.6094 9.94112 18.2904 10.0724 17.9582 10.0724C17.626 10.0724 17.3069 9.94112 17.0694 9.7067C16.8319 9.47228 16.6948 9.15334 16.6875 8.81817V7.53623C16.6875 7.19607 16.8214 6.86985 17.0598 6.62932C17.2981 6.38879 17.6214 6.25366 17.9585 6.25366Z" fill="#016481"/>
<path id="Path 416" d="M23.0413 6.25366C23.3782 6.25383 23.7014 6.38903 23.9396 6.62954C24.1778 6.87005 24.3116 7.19618 24.3116 7.53623V8.81817C24.3043 9.15334 24.1672 9.47228 23.9297 9.7067C23.6922 9.94112 23.3732 10.0724 23.041 10.0724C22.7087 10.0724 22.3897 9.94112 22.1522 9.7067C21.9147 9.47228 21.7776 9.15334 21.7703 8.81817V7.53623C21.7703 7.19607 21.9042 6.86985 22.1425 6.62932C22.3809 6.38879 22.7042 6.25366 23.0413 6.25366Z" fill="#016481"/>
<path id="Path 412" d="M28.1252 6.25366C28.4622 6.25383 28.7854 6.38903 29.0236 6.62954C29.2618 6.87005 29.3956 7.19618 29.3956 7.53623V8.81817C29.3883 9.15334 29.2512 9.47228 29.0137 9.7067C28.7762 9.94112 28.4572 10.0724 28.1249 10.0724C27.7927 10.0724 27.4737 9.94112 27.2362 9.7067C26.9987 9.47228 26.8616 9.15334 26.8542 8.81817V7.53623C26.8542 7.19607 26.9882 6.86985 27.2265 6.62932C27.4649 6.38879 27.7882 6.25366 28.1252 6.25366Z" fill="#016481"/>
<path id="Path 413" d="M11.6053 15.229H29.3956V16.5116H11.6053V15.229Z" fill="#016481"/>
<path id="Path 414" d="M11.6053 17.7942H29.3956V19.0768H11.6053V17.7942Z" fill="#016481"/>
<path id="Path 415" d="M11.6053 20.3594H29.3956V21.6419H11.6053V20.3594Z" fill="#016481"/>
<path id="Path 418" d="M11.6053 22.9246H19.2301V24.2071H11.6053V22.9246Z" fill="#016481"/>
</g>
</g>
</g>
<defs>
<linearGradient id="paint0_linear_214_1474" x1="22.4219" y1="5.53523" x2="42.896" y2="46.8072" gradientUnits="userSpaceOnUse">
<stop stop-color="#5CC0DC"/>
<stop offset="1" stop-color="#008FB7"/>
</linearGradient>
<clipPath id="clip0_214_1474">
<rect width="41" height="42" fill="white"/>
</clipPath>
</defs>
</svg>
