<svg width="24" height="24" viewBox="0 0 24 24" fill="none" xmlns="http://www.w3.org/2000/svg">
<g id="user-cog">
<path id="Vector" d="M16 21V19C16 17.9391 15.5786 16.9217 14.8284 16.1716C14.0783 15.4214 13.0609 15 12 15H6C4.93913 15 3.92172 15.4214 3.17157 16.1716C2.42143 16.9217 2 17.9391 2 19V21M19 13C20.1046 13 21 12.1046 21 11C21 9.89543 20.1046 9 19 9M19 13C17.8954 13 17 12.1046 17 11C17 9.89543 17.8954 9 19 9M19 13V14M19 9V8M21.6 9.5L20.73 10M17.2699 12L16.3999 12.5M21.6 12.5L20.73 12M17.2699 10L16.3999 9.5M13 7C13 9.20914 11.2091 11 9 11C6.79086 11 5 9.20914 5 7C5 4.79086 6.79086 3 9 3C11.2091 3 13 4.79086 13 7Z" stroke="#0A9EF3" stroke-width="2" stroke-linecap="round" stroke-linejoin="round"/>
</g>
</svg>
