<svg width="65" height="66" viewBox="0 0 65 66" fill="none" xmlns="http://www.w3.org/2000/svg">
<g clip-path="url(#clip0_225_4180)">
<mask id="mask0_225_4180" style="mask-type:luminance" maskUnits="userSpaceOnUse" x="0" y="0" width="65" height="66">
<path d="M49.0816 0H15.9184C7.1269 0 0 7.16344 0 16V50C0 58.8366 7.1269 66 15.9184 66H49.0816C57.8731 66 65 58.8366 65 50V16C65 7.16344 57.8731 0 49.0816 0Z" fill="white"/>
</mask>
<g mask="url(#mask0_225_4180)">
<path d="M5.64648 -6.78223H59.2675C60.9001 -6.78223 62.4659 -6.13035 63.6203 -4.97C64.7747 -3.80965 65.4233 -2.23588 65.4233 -0.594893V65.1878C65.4233 66.8288 64.7747 68.4025 63.6203 69.5629C62.4659 70.7232 60.9001 71.3751 59.2675 71.3751H5.64648V-6.78223Z" fill="url(#paint0_linear_225_4180)"/>
<path d="M1.77026 0.708008H8.8924C9.15036 0.70792 9.40581 0.758915 9.64417 0.858078C9.88252 0.957242 10.0991 1.10263 10.2815 1.28594C10.464 1.46925 10.6087 1.6869 10.7074 1.92644C10.8062 2.16598 10.857 2.42272 10.857 2.68201V61.9113C10.8571 62.1707 10.8063 62.4275 10.7076 62.6671C10.6089 62.9067 10.4642 63.1245 10.2818 63.3078C10.0993 63.4912 9.88271 63.6367 9.64432 63.7359C9.40592 63.8351 9.15042 63.8861 8.8924 63.886H1.77026C1.51224 63.8861 1.25673 63.8351 1.01834 63.7359C0.779941 63.6367 0.563332 63.4912 0.380885 63.3078C0.198439 63.1245 0.0537314 62.9067 -0.0449677 62.6671C-0.143667 62.4275 -0.194423 62.1707 -0.194336 61.9113V2.68201C-0.194336 2.42272 -0.143515 2.16598 -0.0447772 1.92644C0.0539609 1.6869 0.198682 1.46925 0.38112 1.28594C0.563558 1.10263 0.780138 0.957242 1.01849 0.858078C1.25684 0.758915 1.51229 0.70792 1.77026 0.708008Z" fill="url(#paint1_linear_225_4180)"/>
<path d="M15.9075 -6.78206V24.2246C15.9075 24.2246 15.7714 24.5946 16.2728 24.7913C16.4883 24.9024 16.7275 24.9604 16.9697 24.9604C17.2119 24.9604 17.4499 24.9024 17.6654 24.7913C18.0594 24.5379 20.72 22.204 21.1372 22.0353C21.3118 21.9317 21.5109 21.877 21.7136 21.877C21.9164 21.877 22.1155 21.9317 22.2901 22.0353C22.6708 22.2887 25.872 24.7913 25.872 24.7913C26.0076 24.8776 26.1609 24.9326 26.3202 24.9521C26.4796 24.9716 26.6408 24.9551 26.7931 24.904C26.9808 24.8509 27.1477 24.7418 27.2724 24.5911C27.3971 24.4404 27.4736 24.2552 27.4913 24.06C27.5483 23.6386 27.5185 -6.78271 27.5185 -6.78271L15.9075 -6.78206Z" fill="url(#paint2_linear_225_4180)"/>
<path d="M-2.34338 8.35791H3.18095C3.46307 8.35791 3.74243 8.41376 4.00308 8.52228C4.26372 8.6308 4.50055 8.78985 4.70004 8.99036C4.89953 9.19088 5.05778 9.42892 5.16574 9.6909C5.2737 9.95288 5.32927 10.2337 5.32927 10.5172C5.32927 10.8008 5.2737 11.0816 5.16574 11.3436C5.05778 11.6056 4.89953 11.8436 4.70004 12.0441C4.50055 12.2446 4.26372 12.4037 4.00308 12.5122C3.74243 12.6207 3.46307 12.6766 3.18095 12.6766H-2.34338C-2.6255 12.6766 -2.90486 12.6207 -3.16551 12.5122C-3.42615 12.4037 -3.66298 12.2446 -3.86247 12.0441C-4.06196 11.8436 -4.22021 11.6056 -4.32817 11.3436C-4.43613 11.0816 -4.4917 10.8008 -4.4917 10.5172C-4.4917 10.2337 -4.43613 9.95288 -4.32817 9.6909C-4.22021 9.42892 -4.06196 9.19088 -3.86247 8.99036C-3.66298 8.78985 -3.42615 8.6308 -3.16551 8.52228C-2.90486 8.41376 -2.6255 8.35791 -2.34338 8.35791Z" fill="url(#paint3_linear_225_4180)"/>
<path d="M-2.34338 22.4248H3.18095C3.46307 22.4248 3.74243 22.4807 4.00308 22.5892C4.26372 22.6977 4.50055 22.8567 4.70004 23.0573C4.89953 23.2578 5.05778 23.4958 5.16574 23.7578C5.2737 24.0198 5.32927 24.3006 5.32927 24.5841C5.32927 24.8677 5.2737 25.1485 5.16574 25.4105C5.05778 25.6725 4.89953 25.9105 4.70004 26.111C4.50055 26.3115 4.26372 26.4706 4.00308 26.5791C3.74243 26.6876 3.46307 26.7435 3.18095 26.7435H-2.34338C-2.6255 26.7435 -2.90486 26.6876 -3.16551 26.5791C-3.42615 26.4706 -3.66298 26.3115 -3.86247 26.111C-4.06196 25.9105 -4.22021 25.6725 -4.32817 25.4105C-4.43613 25.1485 -4.4917 24.8677 -4.4917 24.5841C-4.4917 24.3006 -4.43613 24.0198 -4.32817 23.7578C-4.22021 23.4958 -4.06196 23.2578 -3.86247 23.0573C-3.66298 22.8567 -3.42615 22.6977 -3.16551 22.5892C-2.90486 22.4807 -2.6255 22.4248 -2.34338 22.4248Z" fill="url(#paint4_linear_225_4180)"/>
<path d="M-2.34338 37.8491H3.18095C3.46307 37.8491 3.74243 37.905 4.00308 38.0135C4.26372 38.122 4.50055 38.2811 4.70004 38.4816C4.89953 38.6821 5.05778 38.9201 5.16574 39.1821C5.2737 39.4441 5.32927 39.7249 5.32927 40.0085C5.32927 40.292 5.2737 40.5728 5.16574 40.8348C5.05778 41.0968 4.89953 41.3348 4.70004 41.5353C4.50055 41.7358 4.26372 41.8949 4.00308 42.0034C3.74243 42.1119 3.46307 42.1678 3.18095 42.1678H-2.34338C-2.6255 42.1678 -2.90486 42.1119 -3.16551 42.0034C-3.42615 41.8949 -3.66298 41.7358 -3.86247 41.5353C-4.06196 41.3348 -4.22021 41.0968 -4.32817 40.8348C-4.43613 40.5728 -4.4917 40.292 -4.4917 40.0085C-4.4917 39.7249 -4.43613 39.4441 -4.32817 39.1821C-4.22021 38.9201 -4.06196 38.6821 -3.86247 38.4816C-3.66298 38.2811 -3.42615 38.122 -3.16551 38.0135C-2.90486 37.905 -2.6255 37.8491 -2.34338 37.8491Z" fill="url(#paint5_linear_225_4180)"/>
<path d="M-2.34338 51.916H3.18095C3.46307 51.916 3.74243 51.9719 4.00308 52.0804C4.26372 52.1889 4.50055 52.348 4.70004 52.5485C4.89953 52.749 5.05778 52.987 5.16574 53.249C5.2737 53.511 5.32927 53.7918 5.32927 54.0753C5.32927 54.3589 5.2737 54.6397 5.16574 54.9017C5.05778 55.1637 4.89953 55.4017 4.70004 55.6022C4.50055 55.8027 4.26372 55.9618 4.00308 56.0703C3.74243 56.1788 3.46307 56.2347 3.18095 56.2347H-2.34338C-2.6255 56.2347 -2.90486 56.1788 -3.16551 56.0703C-3.42615 55.9618 -3.66298 55.8027 -3.86247 55.6022C-4.06196 55.4017 -4.22021 55.1637 -4.32817 54.9017C-4.43613 54.6397 -4.4917 54.3589 -4.4917 54.0753C-4.4917 53.7918 -4.43613 53.511 -4.32817 53.249C-4.22021 52.987 -4.06196 52.749 -3.86247 52.5485C-3.66298 52.348 -3.42615 52.1889 -3.16551 52.0804C-2.90486 51.9719 -2.6255 51.916 -2.34338 51.916Z" fill="url(#paint6_linear_225_4180)"/>
<path d="M41.6402 63.8857L37.6528 53.2798L50.3507 56.7264L41.6402 63.8857Z" fill="#35495E"/>
<path d="M37.6519 53.2794L48.9934 10.7361C49.2973 10.0827 49.8023 9.54502 50.434 9.20275C51.1898 8.95622 51.9956 8.90558 52.7761 9.05545L60.1005 11.1174C60.7015 11.4456 61.1998 11.9355 61.5398 12.5321C61.7729 13.172 61.8235 13.8647 61.6862 14.5321L50.434 56.7814L37.6519 53.2794Z" fill="url(#paint7_linear_225_4180)"/>
<path d="M47.1899 17.5314L48.9984 10.7361C49.2991 10.081 49.8044 9.54253 50.4376 9.20274C51.1944 8.95622 52.0009 8.90558 52.7824 9.05544L60.1068 11.1174C60.7062 11.4474 61.2036 11.9368 61.5447 12.5321C61.7789 13.1717 61.8307 13.8643 61.695 14.5321L59.9708 21.0334L47.1899 17.5314Z" fill="url(#paint8_linear_225_4180)"/>
<path d="M50.3522 56.7852L46.3027 60.1152L39.5172 58.2859L37.5986 53.2192L50.3522 56.7852Z" fill="#EEEA7C"/>
<path d="M59.9646 21.0361L58.7624 25.5068L45.9492 21.9128L47.2149 17.4341L59.9646 21.0361Z" fill="url(#paint9_linear_225_4180)"/>
</g>
</g>
<defs>
<linearGradient id="paint0_linear_225_4180" x1="35.5349" y1="-6.78223" x2="176.753" y2="143.459" gradientUnits="userSpaceOnUse">
<stop stop-color="#F0C419"/>
<stop offset="1" stop-color="#78620D"/>
</linearGradient>
<linearGradient id="paint1_linear_225_4180" x1="-2.34934" y1="-6.99971" x2="55.651" y2="-4.44535" gradientUnits="userSpaceOnUse">
<stop stop-color="#F3D55B"/>
<stop offset="1" stop-color="#8F7402"/>
</linearGradient>
<linearGradient id="paint2_linear_225_4180" x1="17.5196" y1="-1.98951" x2="54.876" y2="5.83831" gradientUnits="userSpaceOnUse">
<stop stop-color="#E57E25"/>
<stop offset="1" stop-color="#733F13"/>
</linearGradient>
<linearGradient id="paint3_linear_225_4180" x1="0.418786" y1="8.35791" x2="3.59574" y2="33.1162" gradientUnits="userSpaceOnUse">
<stop stop-color="#BEBEBE"/>
<stop offset="1" stop-color="#5F5F5F"/>
</linearGradient>
<linearGradient id="paint4_linear_225_4180" x1="0.418786" y1="22.4248" x2="3.59574" y2="47.1831" gradientUnits="userSpaceOnUse">
<stop stop-color="#BEBEBE"/>
<stop offset="1" stop-color="#5F5F5F"/>
</linearGradient>
<linearGradient id="paint5_linear_225_4180" x1="0.418786" y1="37.8491" x2="3.59574" y2="62.6075" gradientUnits="userSpaceOnUse">
<stop stop-color="#BEBEBE"/>
<stop offset="1" stop-color="#5F5F5F"/>
</linearGradient>
<linearGradient id="paint6_linear_225_4180" x1="0.418786" y1="51.916" x2="3.59574" y2="76.6743" gradientUnits="userSpaceOnUse">
<stop stop-color="#BEBEBE"/>
<stop offset="1" stop-color="#5F5F5F"/>
</linearGradient>
<linearGradient id="paint7_linear_225_4180" x1="49.7068" y1="8.97119" x2="77.9984" y2="53.4616" gradientUnits="userSpaceOnUse">
<stop stop-color="#11B9E1"/>
<stop offset="1" stop-color="#345D66"/>
</linearGradient>
<linearGradient id="paint8_linear_225_4180" x1="54.4794" y1="8.97119" x2="49.2362" y2="23.8762" gradientUnits="userSpaceOnUse">
<stop stop-color="#FF5364"/>
<stop offset="1" stop-color="#802A32"/>
</linearGradient>
<linearGradient id="paint9_linear_225_4180" x1="52.9569" y1="17.4341" x2="56.268" y2="32.8511" gradientUnits="userSpaceOnUse">
<stop stop-color="#95A5A5"/>
<stop offset="1" stop-color="#4B5353"/>
</linearGradient>
<clipPath id="clip0_225_4180">
<rect width="65" height="66" fill="white"/>
</clipPath>
</defs>
</svg>
