<svg width="64" height="65" viewBox="0 0 64 65" fill="none" xmlns="http://www.w3.org/2000/svg">
<g clip-path="url(#clip0_225_4140)">
<mask id="mask0_225_4140" style="mask-type:luminance" maskUnits="userSpaceOnUse" x="0" y="0" width="64" height="65">
<path d="M48.3265 0H15.6735C7.01725 0 0 7.05491 0 15.7576V49.2424C0 57.9451 7.01725 65 15.6735 65H48.3265C56.9827 65 64 57.9451 64 49.2424V15.7576C64 7.05491 56.9827 0 48.3265 0Z" fill="white"/>
</mask>
<g mask="url(#mask0_225_4140)">
<path d="M48.3265 0H15.6735C7.01725 0 0 7.05491 0 15.7576V49.2424C0 57.9451 7.01725 65 15.6735 65H48.3265C56.9827 65 64 57.9451 64 49.2424V15.7576C64 7.05491 56.9827 0 48.3265 0Z" fill="#137397"/>
<path d="M43.7792 52.7655C48.4475 52.7655 52.2318 48.855 52.2318 44.0312C52.2318 39.2074 48.4475 35.2969 43.7792 35.2969C39.111 35.2969 35.3267 39.2074 35.3267 44.0312C35.3267 48.855 39.111 52.7655 43.7792 52.7655Z" fill="#008465"/>
<path d="M32.5461 44.7121H11.2217V18.3247H52.2339V36.633C50.6377 34.9951 48.5924 33.8722 46.3589 33.4075C44.1254 32.9427 41.8048 33.1572 39.693 34.0235C37.5812 34.8898 35.7739 36.3688 34.5014 38.2718C33.2289 40.1748 32.5489 42.4157 32.548 44.7088L32.5461 44.7121Z" fill="url(#paint0_linear_225_4140)"/>
<path d="M52.7792 21.6235H11.2217V28.2207H52.7792V21.6235Z" fill="url(#paint1_linear_225_4140)"/>
<path d="M46.2479 46.0989C46.2477 46.4644 46.1539 46.8237 45.9756 47.1422C45.7848 47.4826 45.5093 47.7675 45.1762 47.9688C44.7929 48.1989 44.3581 48.3283 43.9119 48.345V49.2682H43.2993V48.345C42.6815 48.3135 42.091 48.0792 41.6184 47.678C41.41 47.4963 41.2436 47.2711 41.1308 47.0181C41.018 46.7651 40.9615 46.4904 40.9653 46.2132H42.0637C42.0903 46.5212 42.2156 46.8122 42.421 47.0424C42.6525 47.2903 42.9639 47.4478 43.3 47.4869V44.6394C42.8819 44.5393 42.4724 44.4058 42.0755 44.2402C41.7606 44.0996 41.4871 43.8798 41.2814 43.602C41.0475 43.2614 40.9327 42.8525 40.9548 42.4392C40.9471 42.1533 41.0002 41.8691 41.1107 41.6056C41.2212 41.3421 41.3865 41.1054 41.5955 40.9114C42.0661 40.491 42.67 40.2524 43.2993 40.2384V39.2949H43.9119V40.241C44.4847 40.2657 45.0323 40.4846 45.4655 40.8621C45.8607 41.2276 46.1038 41.7297 46.146 42.2679H45.0463C45.0054 41.9966 44.8828 41.7446 44.6949 41.5456C44.4862 41.3222 44.2114 41.1723 43.9112 41.1182V43.8981C44.3265 44.0001 44.7339 44.1318 45.1305 44.292C45.4471 44.4272 45.7215 44.6459 45.9246 44.925C46.1566 45.2705 46.2701 45.6827 46.2479 46.0989ZM42.0069 42.3808C41.9969 42.5386 42.0213 42.6967 42.0782 42.8441C42.1352 42.9915 42.2234 43.1247 42.3367 43.2343C42.6188 43.466 42.9471 43.6341 43.2993 43.7274V41.0939C42.9522 41.1128 42.6211 41.2473 42.3583 41.476C42.2386 41.5927 42.1454 41.7339 42.0847 41.89C42.0241 42.0461 41.9976 42.2135 42.0069 42.3808ZM43.9119 47.502C44.2749 47.4778 44.6161 47.3194 44.8699 47.0575C45.0978 46.8141 45.222 46.4909 45.2161 46.1567C45.2258 45.9969 45.2004 45.8369 45.1416 45.6881C45.0828 45.5393 44.992 45.4054 44.8758 45.2959C44.5935 45.0653 44.2646 44.8995 43.9119 44.8101V47.502Z" fill="white"/>
</g>
</g>
<defs>
<linearGradient id="paint0_linear_225_4140" x1="31.7278" y1="18.3247" x2="58.5206" y2="119.88" gradientUnits="userSpaceOnUse">
<stop stop-color="#2DC5BB"/>
<stop offset="1" stop-color="#17635E"/>
</linearGradient>
<linearGradient id="paint1_linear_225_4140" x1="43.8444" y1="26.7297" x2="41.928" y2="4.55634" gradientUnits="userSpaceOnUse">
<stop/>
<stop offset="1" stop-color="#545454"/>
</linearGradient>
<clipPath id="clip0_225_4140">
<rect width="64" height="65" fill="white"/>
</clipPath>
</defs>
</svg>
