<svg width="64" height="65" viewBox="0 0 64 65" fill="none" xmlns="http://www.w3.org/2000/svg">
<g clip-path="url(#clip0_225_4199)">
<mask id="mask0_225_4199" style="mask-type:luminance" maskUnits="userSpaceOnUse" x="0" y="0" width="64" height="65">
<path d="M48.3265 0H15.6735C7.01725 0 0 7.05491 0 15.7576V49.2424C0 57.9451 7.01725 65 15.6735 65H48.3265C56.9827 65 64 57.9451 64 49.2424V15.7576C64 7.05491 56.9827 0 48.3265 0Z" fill="white"/>
</mask>
<g mask="url(#mask0_225_4199)">
<path d="M48.3265 0H15.6735C7.01725 0 0 7.05491 0 15.7576V49.2424C0 57.9451 7.01725 65 15.6735 65H48.3265C56.9827 65 64 57.9451 64 49.2424V15.7576C64 7.05491 56.9827 0 48.3265 0Z" fill="#3B7500"/>
<path d="M0.0524185 37.992C0.0198239 37.524 0.109832 37.0557 0.313579 36.6336C0.618559 36.2613 12.5728 27.376 12.5728 27.376H51.3694L60.8518 34.3887C61.7494 34.9478 62.601 35.5782 63.3987 36.2738C63.6237 36.6135 63.7897 36.9891 63.8898 37.3846C63.9279 37.5267 63.9564 37.6714 63.9753 37.8174L57.2967 53.7758L14.5798 56.6175C14.5798 56.6175 5.37174 48.0466 5.18954 47.4971C5.00733 46.9475 0.0524185 37.992 0.0524185 37.992Z" fill="url(#paint0_linear_225_4199)"/>
<path d="M52.444 61.7936H11.6533C11.0168 61.7936 10.499 61.273 10.499 60.6331V11.7284C10.499 11.0885 11.0168 10.5679 11.6533 10.5679H52.444C53.0805 10.5679 53.5983 11.0885 53.5983 11.7284V60.6331C53.5983 61.273 53.0805 61.7936 52.444 61.7936Z" fill="white"/>
<path d="M11.6532 10.8963C11.1968 10.8963 10.8254 11.2697 10.8254 11.7285V60.6332C10.8254 61.0921 11.1968 61.4654 11.6532 61.4654H52.4439C52.9003 61.4654 53.2717 61.0921 53.2717 60.6332V11.7285C53.2717 11.2697 52.9003 10.8963 52.4439 10.8963H11.6532ZM11.6532 10.2397H52.4439C53.2617 10.2397 53.9247 10.9063 53.9247 11.7285V60.6332C53.9247 61.4554 53.2617 62.122 52.4439 62.122H11.6532C10.8354 62.122 10.1724 61.4554 10.1724 60.6332V11.7285C10.1724 10.9063 10.8354 10.2397 11.6532 10.2397Z" fill="#DBDBDB"/>
<path d="M19.0542 17.8193H45.0395C45.4552 17.8193 45.8538 17.9854 46.1478 18.2809C46.4417 18.5764 46.6068 18.9772 46.6068 19.3951V29.9067C46.6068 30.3246 46.4417 30.7254 46.1478 31.0209C45.8538 31.3165 45.4552 31.4825 45.0395 31.4825H19.0542C18.6385 31.4825 18.2398 31.3165 17.9459 31.0209C17.6519 30.7254 17.4868 30.3246 17.4868 29.9067V19.3951C17.4868 18.9772 17.6519 18.5764 17.9459 18.2809C18.2398 17.9854 18.6385 17.8193 19.0542 17.8193Z" fill="#EA3F3F"/>
<path d="M17.5096 35.9556H46.4984C46.7661 35.9556 47.0229 36.0625 47.2123 36.2529C47.4016 36.4432 47.508 36.7014 47.508 36.9706C47.508 37.2398 47.4016 37.498 47.2123 37.6884C47.0229 37.8787 46.7661 37.9857 46.4984 37.9857H17.5096C17.2419 37.9857 16.9851 37.8787 16.7957 37.6884C16.6064 37.498 16.5 37.2398 16.5 36.9706C16.5 36.7014 16.6064 36.4432 16.7957 36.2529C16.9851 36.0625 17.2419 35.9556 17.5096 35.9556Z" fill="#D1D0CF"/>
<path d="M17.5096 40.5122H46.4984C46.7661 40.5122 47.0229 40.6191 47.2123 40.8095C47.4016 40.9999 47.508 41.258 47.508 41.5273C47.508 41.7965 47.4016 42.0546 47.2123 42.245C47.0229 42.4354 46.7661 42.5423 46.4984 42.5423H17.5096C17.2419 42.5423 16.9851 42.4354 16.7957 42.245C16.6064 42.0546 16.5 41.7965 16.5 41.5273C16.5 41.258 16.6064 40.9999 16.7957 40.8095C16.9851 40.6191 17.2419 40.5122 17.5096 40.5122Z" fill="#D1D0CF"/>
<path d="M17.5096 45.0688H46.4984C46.7661 45.0688 47.0229 45.1758 47.2123 45.3661C47.4016 45.5565 47.508 45.8147 47.508 46.0839C47.508 46.3531 47.4016 46.6113 47.2123 46.8016C47.0229 46.992 46.7661 47.0989 46.4984 47.0989H17.5096C17.2419 47.0989 16.9851 46.992 16.7957 46.8016C16.6064 46.6113 16.5 46.3531 16.5 46.0839C16.5 45.8147 16.6064 45.5565 16.7957 45.3661C16.9851 45.1758 17.2419 45.0688 17.5096 45.0688Z" fill="#D1D0CF"/>
<path d="M17.5096 49.6255H46.4984C46.7661 49.6255 47.0229 49.7324 47.2123 49.9228C47.4016 50.1131 47.508 50.3713 47.508 50.6405C47.508 50.9097 47.4016 51.1679 47.2123 51.3583C47.0229 51.5486 46.7661 51.6556 46.4984 51.6556H17.5096C17.2419 51.6556 16.9851 51.5486 16.7957 51.3583C16.6064 51.1679 16.5 50.9097 16.5 50.6405C16.5 50.3713 16.6064 50.1131 16.7957 49.9228C16.9851 49.7324 17.2419 49.6255 17.5096 49.6255Z" fill="#D1D0CF"/>
<path d="M0.0535714 37.8019L0 78.4642C0.00317149 78.7814 0.0688523 79.0948 0.192921 79.3864C0.31699 79.678 0.496955 79.9422 0.722895 80.1635C1.16623 80.6067 1.75837 80.8671 2.38297 80.8937H61.4461C62.081 80.8522 62.6937 80.6433 63.2229 80.2882C63.6385 79.8749 63.9105 79.338 63.9987 78.7571V37.7993L32.0453 59.6359L0.0535714 37.8019Z" fill="url(#paint1_linear_225_4199)"/>
<path d="M2.36914 80.8899L30.4925 57.5687C30.9307 57.1645 31.482 56.9059 32.0716 56.8281C32.642 56.8996 33.1724 57.1602 33.579 57.5687L61.4364 80.8827L2.36914 80.8899Z" fill="url(#paint2_linear_225_4199)"/>
<path d="M26.0745 20.3508V21.467H23.8659V28.6892H22.5056V21.467H20.2852V20.3508H26.0745ZM32.4491 26.9874H28.9748L28.3779 28.6945H26.9575L29.9296 20.3423H31.5054L34.4775 28.6945H33.0453L32.4491 26.9874ZM32.067 25.8712L30.7185 21.9975L29.3575 25.8712H32.067ZM39.5772 24.5272L42.1555 28.6912H40.6274L38.7531 25.667L36.9983 28.6912H35.4806L38.0589 24.5272L35.4688 20.3508H36.997L38.883 23.3992L40.6496 20.3508H42.1653L39.5772 24.5272Z" fill="white"/>
</g>
</g>
<defs>
<linearGradient id="paint0_linear_225_4199" x1="32.0106" y1="27.376" x2="32.0106" y2="56.6175" gradientUnits="userSpaceOnUse">
<stop stop-color="#E87E04"/>
<stop offset="1" stop-color="#743F02"/>
</linearGradient>
<linearGradient id="paint1_linear_225_4199" x1="31.9994" y1="37.7993" x2="31.9994" y2="202.204" gradientUnits="userSpaceOnUse">
<stop stop-color="#F3A334"/>
<stop offset="1" stop-color="#7A521A"/>
</linearGradient>
<linearGradient id="paint2_linear_225_4199" x1="31.9028" y1="56.8281" x2="31.9028" y2="80.8899" gradientUnits="userSpaceOnUse">
<stop stop-color="#FFC964"/>
<stop offset="1" stop-color="#E49500"/>
</linearGradient>
<clipPath id="clip0_225_4199">
<rect width="64" height="65" fill="white"/>
</clipPath>
</defs>
</svg>
